<?xml version="1.0" standalone="no"?>
<!DOCTYPE svg PUBLIC "-//W3C//DTD SVG 20010904//EN"
 "http://www.w3.org/TR/2001/REC-SVG-20010904/DTD/svg10.dtd">
<svg version="1.0" xmlns="http://www.w3.org/2000/svg"
 width="730.000000pt" height="730.000000pt" viewBox="0 0 730.000000 730.000000"
 preserveAspectRatio="xMidYMid meet">
<metadata>
Created by potrace 1.11, written by Peter Selinger 2001-2013
</metadata>
<g transform="translate(0.000000,730.000000) scale(0.100000,-0.100000)"
fill="#000000" stroke="none">
<path d="M5136 7292 c-3 -2 -2 -10 0 -17 3 -7 -2 -26 -11 -42 -9 -15 -14 -20
-11 -10 3 9 1 17 -4 17 -10 0 -14 -14 -10 -39 1 -8 -9 -1 -23 14 -17 20 -24
24 -24 12 0 -9 4 -14 8 -12 4 3 10 -2 13 -11 4 -12 2 -15 -9 -11 -18 7 -30 -9
-14 -19 8 -5 9 -3 4 7 -5 8 -4 10 0 6 9 -8 16 -37 9 -37 -14 0 -41 36 -37 49
4 9 3 13 -1 10 -10 -9 -16 -50 -7 -44 5 3 11 -2 14 -9 4 -10 0 -14 -13 -11
-13 2 -17 -1 -13 -10 3 -8 -2 -22 -11 -30 -9 -9 -16 -13 -16 -8 0 5 4 13 10
19 6 6 5 15 -1 24 -9 12 -10 12 -5 -3 3 -11 0 -20 -9 -23 -8 -4 -12 -10 -9
-15 3 -6 0 -17 -8 -26 -11 -15 -11 -16 7 -10 19 7 19 6 2 -7 -10 -8 -32 -13
-49 -10 -28 3 -29 2 -12 -10 10 -8 24 -12 31 -9 7 3 13 -1 13 -8 0 -7 -3 -9
-7 -6 -4 4 -20 -5 -36 -20 -17 -16 -27 -23 -24 -18 9 16 -27 35 -44 24 -11 -8
-9 -9 6 -7 17 3 20 -3 20 -34 1 -30 -2 -35 -12 -26 -10 8 -10 14 -3 23 8 10 7
15 -2 21 -7 4 -10 4 -6 -1 4 -4 3 -14 -3 -22 -9 -10 -8 -17 1 -29 8 -8 9 -14
4 -12 -12 4 -55 -27 -49 -35 3 -4 2 -5 -1 -2 -4 2 -16 0 -27 -6 -10 -6 -17 -7
-14 -2 4 5 0 10 -8 10 -10 0 -11 -5 -4 -18 5 -10 9 -20 9 -23 0 -8 -32 -3 -48
8 -8 5 -12 3 -10 -6 2 -7 -4 -12 -12 -10 -8 2 -12 0 -8 -4 4 -4 3 -13 -3 -20
-7 -9 -4 -16 11 -27 18 -12 19 -15 5 -21 -9 -3 -13 -2 -10 4 3 6 2 10 -3 10
-17 0 -22 -13 -9 -29 10 -14 10 -14 -4 -4 -9 7 -20 9 -25 5 -5 -4 -1 2 9 14
16 19 16 22 2 34 -9 7 -15 9 -14 4 1 -5 0 -12 -1 -16 -1 -5 -3 -14 -4 -20 -1
-7 -7 -12 -14 -11 -6 2 -16 -6 -22 -17 -8 -15 -6 -21 7 -30 17 -11 17 -11 0
-6 -14 4 -16 1 -13 -19 3 -15 1 -23 -5 -20 -5 4 -7 11 -4 16 4 5 -5 8 -19 7
-21 -2 -24 -6 -21 -37 2 -19 0 -30 -3 -25 -18 24 -40 35 -48 23 -4 -7 -3 -9 3
-6 6 4 14 0 17 -8 4 -12 0 -14 -19 -9 -15 4 -25 2 -25 -5 0 -14 -31 -3 -49 18
-12 15 -13 14 -8 -1 5 -14 1 -18 -15 -18 -18 0 -19 2 -7 17 11 13 8 13 -16 -3
-29 -19 -29 -19 -21 1 5 15 4 17 -4 9 -6 -6 -13 -20 -14 -30 -2 -10 -9 -20
-17 -22 -10 -2 -10 -1 -2 5 8 6 6 14 -7 31 -18 21 -37 31 -25 13 3 -5 1 -12
-5 -16 -6 -3 -13 1 -16 10 -5 12 -10 13 -20 4 -21 -17 -7 -28 31 -25 20 2 32
0 29 -6 -3 -5 -9 -7 -12 -4 -3 3 -14 -2 -25 -11 -11 -10 -17 -13 -14 -7 8 14
-20 27 -36 17 -6 -4 -8 0 -4 10 3 9 1 19 -5 23 -7 4 -8 3 -4 -4 3 -6 -2 -16
-13 -21 -29 -16 -38 -13 -15 4 18 14 17 15 -11 8 -28 -6 -29 -5 -15 13 14 18
14 18 -3 5 -12 -9 -14 -17 -7 -26 11 -13 4 -25 -14 -25 -7 0 -7 3 1 8 8 5 7
12 -4 27 -12 15 -14 16 -10 3 3 -9 -1 -22 -9 -28 -8 -7 -14 -9 -14 -4 0 5 -5
2 -11 -6 -8 -12 -9 -10 -4 7 3 12 1 24 -5 28 -6 4 -10 3 -9 -2 1 -4 -2 -19 -8
-32 -10 -24 -10 -24 -15 -3 -4 12 -3 20 1 18 4 -3 8 5 8 17 2 20 1 20 -8 4 -6
-9 -15 -14 -21 -11 -7 4 -8 2 -4 -4 4 -7 1 -12 -8 -12 -9 0 -16 -5 -16 -10 0
-7 7 -7 23 0 20 10 21 10 4 -4 -11 -8 -27 -13 -38 -11 -10 2 -19 0 -19 -5 0
-4 -9 -6 -21 -3 -15 4 -17 8 -8 14 7 4 17 5 23 2 5 -3 6 -1 2 5 -8 14 -76 -16
-76 -33 0 -6 -9 -11 -20 -12 -11 -1 -20 3 -20 8 0 6 4 8 9 4 5 -3 12 -1 15 4
3 5 -1 11 -9 15 -8 3 -15 1 -15 -3 0 -15 -32 -5 -46 14 -8 10 -14 14 -14 9 0
-6 5 -15 12 -22 9 -9 7 -13 -5 -18 -9 -3 -15 -9 -12 -13 2 -4 -2 -8 -9 -8 -7
0 -13 6 -13 13 0 7 4 11 8 8 4 -2 10 -1 13 4 2 4 -4 9 -15 9 -13 1 -19 -5 -19
-19 0 -14 -5 -18 -15 -14 -8 3 -15 0 -15 -7 0 -9 -3 -8 -9 1 -4 8 -16 12 -26
10 -10 -2 -20 4 -22 12 -4 13 -3 13 6 0 8 -12 10 -11 9 7 -2 26 -28 19 -28 -8
0 -10 -4 -19 -9 -19 -4 0 -7 11 -6 25 3 22 1 23 -16 14 -11 -5 -25 -7 -31 -3
-7 4 -8 3 -4 -4 4 -7 1 -12 -9 -12 -9 0 -14 4 -11 8 2 4 -15 8 -38 7 -31 0
-42 -4 -39 -12 6 -15 19 -17 27 -4 9 14 41 5 38 -10 -2 -8 -11 -21 -20 -29
-14 -14 -15 -13 -2 3 10 13 10 21 2 29 -8 8 -13 7 -18 -5 -3 -10 -11 -14 -18
-10 -16 11 -30 10 -39 -2 -5 -6 -7 -4 -4 5 2 8 10 14 16 12 7 -1 10 2 6 7 -3
6 -12 8 -20 4 -11 -4 -14 0 -9 13 5 15 4 16 -4 5 -6 -8 -8 -20 -5 -27 2 -6 -1
-15 -8 -20 -8 -4 -10 -3 -5 4 4 7 1 20 -6 30 -13 17 -14 17 -30 0 -10 -10 -17
-20 -15 -22 1 -2 -2 -8 -7 -13 -5 -4 -6 -3 -3 3 4 7 -2 23 -14 35 -11 13 -18
18 -14 12 3 -7 1 -13 -5 -13 -6 0 -8 -5 -4 -11 4 -8 9 -7 15 2 7 11 9 11 9 -2
0 -9 -7 -20 -16 -23 -8 -3 -12 -2 -9 4 8 13 -1 13 -27 -1 -12 -6 -18 -7 -14
-1 3 5 -1 13 -10 16 -9 4 -13 2 -8 -5 4 -7 -1 -9 -15 -4 -17 5 -20 3 -14 -12
4 -10 11 -21 17 -26 6 -4 -4 -5 -22 -2 -28 5 -35 2 -39 -15 -7 -26 -29 -20
-25 6 2 15 1 16 -7 4 -7 -9 -6 -19 1 -28 9 -10 6 -12 -16 -8 -17 3 -29 0 -32
-9 -3 -7 -17 -12 -32 -10 -24 2 -25 2 -7 -11 15 -11 21 -11 34 -1 12 9 13 9 7
0 -4 -8 -2 -13 6 -13 10 0 9 -3 -2 -9 -8 -6 -18 -7 -23 -4 -5 3 -14 -1 -19 -8
-8 -11 -9 -11 -5 3 7 19 -26 31 -42 15 -15 -15 -41 -18 -41 -4 0 6 -7 1 -16
-11 -13 -18 -19 -21 -30 -11 -10 8 -18 9 -27 0 -8 -6 -17 -8 -20 -4 -4 3 -7 1
-7 -6 0 -7 -4 -10 -9 -6 -5 3 -13 1 -16 -5 -5 -8 -11 -7 -21 1 -11 9 -15 8
-20 -5 -6 -15 -8 -15 -20 1 -13 17 -14 17 -7 -2 6 -18 5 -19 -12 -5 -17 13
-18 13 -10 0 17 -27 17 -53 0 -47 -8 4 -19 -1 -24 -11 -5 -9 -13 -17 -18 -17
-4 0 -7 -3 -6 -7 1 -3 -4 -5 -13 -4 -8 1 -13 6 -12 12 2 5 7 8 11 6 5 -1 6 2
2 8 -5 8 -12 7 -22 -2 -9 -7 -18 -12 -20 -10 -8 6 -23 1 -23 -9 0 -5 5 -7 10
-4 6 3 10 1 10 -4 0 -14 -17 -14 -25 -1 -4 6 -11 7 -17 4 -6 -4 -14 -1 -18 6
-5 9 -13 9 -27 2 -14 -8 -23 -8 -31 0 -7 7 -12 8 -12 4 0 -5 -8 -2 -17 5 -10
8 -14 9 -10 2 4 -6 3 -14 -2 -18 -5 -3 -14 3 -20 12 -6 11 -11 13 -11 5 0 -7
-5 -10 -10 -7 -6 4 -7 11 -4 17 4 7 2 8 -5 4 -6 -4 -9 -11 -6 -16 3 -5 1 -11
-5 -15 -6 -3 -13 1 -16 9 -7 19 -25 22 -22 4 2 -9 -11 -13 -39 -13 -22 0 -39
-3 -37 -7 3 -4 -3 -5 -12 -1 -11 4 -15 3 -10 -5 4 -7 -1 -9 -16 -7 -13 3 -24
9 -26 15 -2 6 -9 7 -15 3 -7 -4 -6 0 1 10 10 12 11 20 2 34 -9 15 -10 14 -4
-7 l7 -25 -23 20 -23 20 12 -22 c6 -12 11 -24 11 -28 0 -10 -27 18 -28 30 0 5
-3 19 -6 30 -2 11 -5 25 -5 30 -1 6 -5 3 -11 -5 -5 -9 -5 -19 0 -25 7 -8 5
-12 -5 -12 -13 0 -19 15 -17 38 1 3 -5 6 -13 6 -10 0 -11 -5 -4 -18 14 -27 11
-31 -9 -12 -11 10 -17 21 -15 25 2 4 -1 9 -6 12 -10 7 -9 -9 4 -37 4 -10 5
-21 1 -24 -3 -4 -6 2 -6 12 0 15 -2 16 -17 4 -9 -8 -14 -9 -10 -3 4 7 -1 18
-10 25 -14 12 -16 12 -11 -2 4 -9 1 -16 -7 -16 -14 0 -14 14 -1 36 8 12 11 11
23 -4 7 -11 13 -14 13 -8 0 17 -27 36 -35 23 -7 -11 -36 -14 -34 -2 3 17 -2
35 -7 29 -10 -9 -46 12 -39 23 4 6 -1 7 -11 3 -12 -4 -15 -3 -10 5 4 7 2 12
-3 12 -6 0 -11 -3 -11 -7 0 -14 17 -35 26 -33 5 1 10 -3 12 -9 6 -19 -17 -12
-30 9 -7 11 -19 20 -27 20 -11 0 -9 5 5 22 l19 21 -27 -18 c-15 -9 -25 -22
-21 -28 4 -6 1 -7 -6 -2 -9 5 -3 17 21 43 18 20 24 29 12 19 -22 -18 -59 -24
-49 -7 4 6 12 8 18 4 7 -3 1 4 -13 17 -14 12 -24 25 -23 29 1 5 -4 11 -13 14
-12 4 -12 2 -4 -14 6 -10 17 -23 26 -28 14 -8 14 -10 -2 -16 -10 -4 -15 -4
-11 0 11 11 -13 33 -29 27 -8 -3 -14 0 -14 7 0 6 5 8 12 4 7 -4 8 -3 4 5 -4 6
-18 9 -32 7 -14 -3 -22 -1 -19 5 4 5 10 7 15 4 4 -3 5 5 2 17 -5 19 -7 20 -10
6 -4 -18 -12 -22 -47 -19 -16 2 -17 0 -5 -8 12 -8 11 -10 -7 -8 -17 1 -20 4
-11 15 7 7 20 11 30 9 10 -3 16 -2 13 3 -3 4 -14 10 -25 13 -13 3 -18 1 -13
-6 4 -7 0 -8 -11 -4 -9 4 -14 3 -11 -2 3 -5 0 -13 -6 -17 -8 -4 -9 -3 -5 4 3
6 -2 16 -13 22 -14 7 -22 7 -26 0 -4 -6 -1 -9 6 -8 6 2 14 -4 16 -12 3 -9 1
-11 -4 -5 -7 9 -20 14 -48 19 -5 1 -15 5 -22 9 -7 4 -16 0 -22 -10 -6 -10 -11
-13 -11 -6 0 6 4 15 10 18 5 3 15 16 20 28 11 21 11 21 -4 3 -10 -12 -16 -15
-16 -7 0 8 -8 11 -20 8 -11 -3 -23 1 -28 7 -4 7 -17 18 -30 25 -12 7 -20 16
-17 22 4 5 1 9 -4 9 -6 0 -11 5 -11 11 0 5 6 7 13 3 7 -4 9 -3 4 2 -5 5 -13
10 -18 10 -22 3 -23 5 -9 15 12 8 10 9 -7 4 -17 -5 -23 -2 -23 9 0 8 -4 17 -9
20 -5 3 -8 -2 -7 -12 0 -9 11 -23 24 -30 26 -15 28 -27 6 -36 -14 -5 -15 -4
-4 9 15 18 -1 20 -18 3 -9 -9 -12 -9 -12 0 0 7 6 12 13 12 8 0 7 3 -3 9 -8 6
-18 7 -24 4 -5 -3 -6 -1 -2 6 7 11 -4 19 -39 24 -11 1 -25 6 -32 10 -6 4 -13
4 -16 0 -2 -5 -2 -2 0 6 4 16 -14 31 -37 31 -12 -1 -11 -3 3 -11 9 -5 17 -15
17 -20 0 -14 -35 21 -35 35 -1 6 -6 10 -13 9 -16 -4 -15 9 0 26 11 11 10 12
-1 6 -10 -6 -13 -4 -9 6 4 10 -2 15 -18 17 -13 1 -24 -3 -24 -8 0 -6 -4 -10
-8 -10 -4 0 -8 11 -8 24 0 14 4 22 8 20 5 -3 6 -10 3 -15 -3 -5 1 -6 9 -3 13
5 11 10 -9 26 -14 11 -22 25 -18 31 3 7 3 9 -2 5 -4 -4 -17 -2 -28 3 -15 8
-22 8 -28 -2 -5 -8 -9 -9 -9 -3 0 5 5 15 12 22 9 9 9 12 -1 12 -7 0 -9 5 -5
13 4 7 3 9 -2 4 -5 -5 -9 -14 -9 -19 0 -6 -7 -13 -15 -15 -9 -3 -11 -1 -5 4
12 9 13 28 2 39 -4 4 -7 -1 -7 -12 0 -16 -2 -16 -10 -4 -6 10 -4 21 8 34 17
19 17 19 -9 0 -22 -16 -25 -22 -16 -39 5 -11 -4 -5 -21 13 -17 19 -36 31 -42
27 -5 -3 -10 -1 -10 5 0 6 7 10 16 8 10 -2 18 3 20 10 1 7 0 8 -2 3 -3 -6 -12
-7 -21 -4 -10 4 -23 -3 -34 -18 -12 -15 -17 -17 -13 -6 3 9 1 17 -5 17 -6 0
-11 5 -11 12 0 9 3 9 11 1 9 -9 15 -8 25 2 19 19 18 30 -1 15 -13 -11 -20 -9
-42 11 -15 13 -21 16 -14 7 14 -19 13 -20 -31 -22 -15 -1 -24 2 -21 7 3 5 0 7
-8 5 -8 -3 -13 -12 -11 -19 2 -8 0 -10 -4 -6 -11 11 -14 38 -3 31 5 -3 9 -1 9
4 0 6 -7 13 -16 16 -10 4 -13 2 -8 -6 5 -8 2 -9 -11 -5 -9 4 -25 2 -33 -5 -13
-11 -15 -10 -9 4 3 10 1 20 -5 24 -7 4 -8 3 -4 -5 5 -8 -2 -11 -23 -9 -29 2
-36 9 -32 31 1 5 -3 6 -8 2 -7 -3 -7 -15 -1 -30 11 -29 -4 -43 -25 -25 -8 7
-15 9 -15 4 0 -5 -5 -1 -11 9 -6 10 -8 21 -5 24 3 4 6 1 6 -5 0 -7 5 -12 12
-12 6 0 3 9 -7 20 -10 11 -20 18 -23 15 -3 -3 -11 0 -18 6 -15 13 -29 -5 -17
-23 11 -19 13 -39 2 -32 -5 3 -7 8 -5 12 2 4 -2 16 -10 27 -8 10 -14 13 -14 7
0 -7 -4 -12 -10 -12 -5 0 -9 4 -7 9 1 5 -2 10 -8 11 -5 1 -17 6 -26 11 -10 5
-20 4 -27 -3 -8 -8 -9 -5 -5 11 3 13 1 21 -6 21 -7 0 -9 5 -5 12 4 7 3 8 -5 4
-9 -6 -9 -11 1 -24 11 -13 11 -14 -8 -4 -12 6 -26 7 -35 1 -7 -5 -21 -9 -29
-8 -9 0 -5 6 10 15 25 15 25 15 1 8 -14 -3 -21 -2 -18 3 4 5 0 10 -8 10 -10 0
-12 -4 -5 -12 5 -6 5 -16 0 -25 -8 -13 -10 -12 -10 3 0 9 -5 17 -11 17 -5 0
-7 5 -3 12 4 7 3 8 -5 4 -9 -6 -9 -11 0 -22 10 -12 9 -13 -7 -7 -17 6 -18 5
-4 -13 14 -18 14 -18 -2 -5 -10 7 -15 17 -12 22 3 5 -2 6 -11 3 -12 -5 -13
-10 -5 -20 10 -10 7 -11 -14 -1 l-25 12 22 12 c21 11 21 11 -5 10 -14 -1 -24
-5 -21 -9 2 -5 -1 -8 -7 -8 -6 0 -9 -4 -5 -9 3 -5 1 -12 -4 -15 -5 -3 -7 7 -6
23 1 17 -3 28 -11 28 -7 0 -11 -4 -8 -9 3 -4 -5 -7 -17 -5 -12 1 -24 -4 -26
-13 -4 -13 -3 -13 6 0 5 8 13 11 18 7 4 -5 1 -12 -7 -17 -9 -6 -19 -5 -24 0
-16 16 -30 12 -17 -4 9 -11 9 -16 0 -22 -7 -4 -9 -3 -5 4 3 6 -1 15 -10 20
-11 6 -13 11 -5 16 6 4 11 13 11 19 0 7 -5 4 -11 -6 -6 -9 -14 -15 -20 -12
-14 9 -11 -2 7 -19 9 -9 11 -16 4 -16 -6 0 -8 -4 -5 -10 3 -5 1 -10 -4 -10 -6
0 -11 -7 -11 -15 0 -8 -5 -15 -10 -15 -7 0 -7 7 0 20 6 11 8 26 4 32 -5 7 -3
8 6 3 9 -5 11 -4 6 3 -10 16 -29 15 -23 0 2 -7 1 -22 -3 -33 -4 -11 -3 -26 4
-34 9 -12 7 -13 -9 -8 -16 6 -15 4 5 -12 20 -16 22 -22 12 -34 -9 -10 -10 -17
-2 -22 5 -3 10 -1 10 4 0 6 5 11 12 11 7 0 5 -6 -4 -17 -9 -10 -14 -28 -12
-40 2 -12 0 -24 -4 -27 -4 -2 -7 12 -7 31 0 24 -5 38 -15 40 -12 4 -12 3 -2
-5 20 -13 19 -17 -3 -43 -15 -18 -15 -20 -2 -10 10 8 17 9 17 3 0 -6 -5 -14
-10 -17 -7 -4 -8 -11 -1 -18 5 -7 10 -16 11 -22 1 -5 3 -12 6 -14 2 -2 1 6 -1
18 -2 12 0 19 6 16 5 -4 9 -1 9 4 0 6 5 11 12 11 6 0 3 -9 -7 -20 -10 -11 -15
-20 -10 -20 4 0 3 -6 -2 -12 -8 -11 -10 -72 -3 -80 7 -10 6 -39 -2 -44 -7 -4
-6 -9 2 -14 8 -5 8 -9 -3 -13 -11 -4 -15 0 -12 14 2 10 -1 19 -7 19 -5 0 -7
-7 -4 -16 5 -12 2 -15 -11 -10 -12 4 -11 1 5 -12 16 -13 20 -20 11 -29 -8 -8
-7 -13 2 -18 8 -6 10 -4 4 5 -5 8 -4 11 3 6 7 -4 10 1 7 14 -2 11 0 20 6 20
10 0 7 -35 -4 -46 -4 -4 -7 -15 -7 -25 0 -13 5 -17 18 -13 13 4 14 3 4 -4 -8
-5 -13 -13 -12 -18 1 -5 -4 -10 -12 -12 -9 -2 -10 -1 -2 5 9 6 7 12 -4 23 -14
13 -15 12 -9 -3 4 -10 2 -17 -5 -17 -7 0 -3 -6 8 -14 10 -8 19 -20 19 -28 1
-7 7 -12 15 -10 10 2 11 0 3 -10 -6 -7 -12 -17 -14 -23 -11 -44 -11 -45 -33
-34 -20 10 -20 9 -3 -5 11 -8 25 -12 33 -9 8 3 14 0 14 -6 0 -6 -6 -11 -14
-11 -20 0 -29 -17 -15 -26 7 -4 9 -3 6 3 -3 5 0 10 8 10 12 0 12 -3 3 -15 -10
-11 -8 -17 7 -28 10 -8 14 -14 7 -14 -6 0 -9 -9 -7 -19 3 -14 -1 -18 -12 -14
-12 5 -12 8 -1 15 9 7 8 8 -5 4 -10 -3 -21 -6 -25 -6 -3 0 3 -6 13 -14 18 -13
32 -51 14 -40 -5 3 -6 10 -3 16 4 7 2 8 -5 4 -8 -5 -9 -12 -2 -19 5 -7 10 -16
11 -22 1 -5 4 -12 7 -15 4 -3 3 1 -1 8 -4 6 -2 12 3 12 14 0 14 -2 -2 -32 -7
-14 -19 -23 -27 -21 -12 4 -12 2 -2 -5 7 -5 12 -14 10 -19 -2 -6 1 -10 7 -10
5 1 9 8 7 15 -2 6 2 12 8 12 6 0 8 -4 5 -10 -3 -5 2 -10 12 -10 13 0 10 -4
-11 -15 -15 -8 -33 -12 -40 -8 -6 3 -6 0 2 -8 10 -11 16 -11 32 -1 12 7 21 8
25 2 4 -6 3 -10 -2 -9 -4 1 -19 -3 -33 -9 -16 -7 -19 -11 -9 -11 9 -1 20 -8
23 -17 5 -14 4 -15 -8 -5 -11 9 -16 9 -22 0 -4 -8 -3 -9 4 -5 7 4 12 3 12 -3
0 -5 -6 -12 -12 -15 -7 -3 -1 -3 15 -1 18 2 25 0 21 -7 -4 -7 -8 -30 -9 -53 0
-22 -4 -46 -8 -52 -4 -7 0 -16 10 -22 11 -6 13 -11 5 -11 -7 0 -10 -5 -6 -12
4 -7 3 -8 -5 -4 -6 4 -8 12 -5 18 4 6 3 8 -3 5 -5 -3 -8 -20 -5 -38 3 -23 1
-30 -7 -24 -9 5 -9 2 0 -13 10 -16 16 -18 27 -10 7 6 12 7 11 2 -1 -5 0 -12 1
-16 1 -5 4 -12 5 -18 1 -5 3 -11 5 -12 1 -2 3 -11 5 -21 4 -22 15 -35 15 -19
0 7 5 12 11 12 8 0 8 -4 -1 -15 -13 -16 -6 -36 13 -31 7 1 9 1 4 -1 -4 -3 -4
-10 0 -16 11 -17 13 -38 3 -32 -4 3 -10 -6 -12 -19 -4 -19 -1 -24 12 -21 14 3
17 -2 13 -18 -4 -18 -3 -19 6 -7 6 8 11 10 11 4 0 -5 -5 -15 -12 -22 -10 -9
-8 -16 6 -30 11 -9 16 -12 13 -7 -3 6 -1 17 5 25 8 13 9 12 5 -1 -3 -9 0 -22
6 -29 9 -10 9 -11 -1 -6 -17 10 -15 -10 4 -28 8 -9 12 -16 7 -16 -5 0 -14 5
-19 10 -7 7 -11 6 -11 -4 0 -8 4 -13 9 -10 4 3 8 0 8 -5 0 -6 -5 -11 -12 -11
-6 0 -8 -3 -5 -6 4 -4 14 -1 22 6 13 11 18 11 28 0 10 -10 9 -12 -5 -7 -12 4
-18 1 -18 -9 0 -8 -4 -12 -10 -9 -6 3 -7 -1 -4 -9 3 -9 10 -13 15 -10 5 3 9 0
9 -6 0 -6 5 -8 12 -4 6 4 8 3 4 -4 -3 -6 -2 -13 4 -17 5 -3 10 -12 10 -18 0
-7 -5 -4 -11 6 -5 9 -18 17 -27 17 -15 -1 -15 -2 1 -11 14 -8 17 -18 13 -42
-6 -29 -5 -30 6 -9 12 24 23 28 34 10 4 -6 3 -8 -4 -4 -6 3 -17 -7 -25 -24
-15 -28 -14 -29 3 -20 19 10 29 -2 37 -47 3 -18 0 -21 -18 -18 -12 2 -18 1
-15 -3 4 -4 16 -8 27 -8 53 -4 52 -3 39 -19 -14 -17 -1 -21 18 -5 6 6 10 7 7
4 -3 -4 1 -14 8 -22 9 -13 9 -14 -1 -8 -7 4 -12 2 -12 -5 0 -9 -3 -9 -14 0
-11 9 -16 9 -22 0 -4 -7 -3 -9 4 -5 14 8 25 -10 27 -43 0 -14 5 -24 11 -21 5
3 8 8 7 13 -2 4 2 7 8 7 6 0 8 -7 5 -16 -3 -9 -6 -20 -6 -25 0 -4 -8 -6 -17
-3 -15 5 -16 4 -3 -5 8 -6 15 -16 15 -23 0 -8 11 -13 28 -12 15 1 25 -1 22 -4
-3 -3 2 -14 12 -24 9 -10 12 -18 7 -18 -5 0 -15 9 -22 20 -10 17 -15 18 -32 8
-10 -7 -17 -14 -15 -17 3 -2 12 2 22 10 15 12 16 12 10 -4 -5 -12 -3 -16 5
-11 8 5 9 2 5 -10 -4 -10 -3 -15 3 -11 6 3 10 -1 10 -10 0 -9 -4 -14 -9 -10
-5 3 -12 1 -15 -4 -7 -10 13 -9 30 1 6 4 11 1 11 -7 0 -13 -9 -19 -28 -17 -3
1 -6 -6 -6 -14 0 -8 4 -14 9 -14 4 0 8 5 8 10 0 6 8 10 18 10 13 0 14 -2 4 -9
-9 -5 -11 -17 -6 -36 4 -17 3 -26 -3 -22 -5 3 -10 0 -10 -8 0 -11 4 -12 14 -4
9 9 13 8 13 0 0 -6 -7 -14 -15 -17 -8 -4 -15 -10 -15 -15 0 -5 12 -1 27 8 15
10 24 13 20 6 -4 -6 -3 -14 1 -17 5 -3 9 -20 8 -38 -1 -24 -5 -32 -16 -30 -8
2 -11 0 -7 -5 9 -8 11 -9 50 -13 17 -2 18 -3 4 -7 -9 -2 -15 -9 -11 -14 3 -5
9 -7 13 -5 8 5 10 -1 14 -53 1 -18 10 -38 18 -45 9 -6 14 -18 12 -26 -4 -13
-3 -13 6 0 8 11 6 18 -6 28 -9 6 -12 12 -6 12 7 0 15 -5 18 -10 4 -6 11 -7 17
-4 6 4 6 -1 -1 -14 -8 -15 -8 -23 1 -28 6 -4 8 -3 4 4 -3 6 -1 14 6 18 7 4 10
4 6 -1 -13 -14 11 -45 30 -38 15 6 15 5 -2 -12 -19 -19 -18 -20 18 -36 34 -15
35 -17 15 -22 -18 -5 -20 -9 -10 -21 8 -10 8 -16 1 -19 -6 -3 -5 -4 2 -3 7 2
13 8 13 13 0 6 3 14 7 17 5 3 6 3 3 -1 -3 -3 1 -13 7 -21 14 -16 20 -44 8 -37
-4 3 -10 -1 -13 -9 -7 -18 31 -59 45 -50 7 4 8 2 4 -5 -4 -6 -15 -10 -24 -9
-9 2 -17 -1 -17 -7 0 -5 -4 -16 -8 -23 -6 -8 -4 -11 4 -10 12 3 14 -1 18 -33
0 -6 7 -9 14 -6 7 3 21 -1 32 -9 10 -8 13 -14 7 -14 -7 0 -12 -5 -12 -11 0 -5
4 -7 10 -4 6 3 7 -1 4 -9 -3 -9 -1 -16 6 -16 6 0 8 -4 5 -10 -3 -5 -11 -10
-17 -10 -6 0 -9 3 -5 6 3 4 0 19 -8 34 -8 15 -12 30 -10 34 3 3 2 4 -2 1 -3
-3 -8 -17 -9 -32 -2 -21 -1 -24 6 -13 11 18 13 9 12 -50 0 -25 1 -29 6 -15 4
11 16 21 27 23 19 2 19 2 2 -9 -15 -9 -16 -13 -5 -26 15 -18 20 -45 7 -37 -5
3 -6 10 -3 16 5 7 2 8 -6 3 -9 -6 -11 -4 -5 5 5 9 4 11 -4 6 -9 -6 -9 -11 1
-24 10 -11 10 -16 1 -19 -8 -3 -7 -10 5 -22 9 -10 20 -16 24 -14 4 2 10 -2 14
-8 4 -8 3 -9 -4 -5 -7 4 -12 2 -12 -3 0 -12 26 -15 33 -3 2 4 2 1 1 -6 -2 -7
6 -17 19 -22 14 -6 16 -9 6 -9 -9 -1 -19 2 -23 6 -10 11 -37 12 -30 2 3 -5 9
-7 14 -4 5 3 11 -4 15 -15 3 -11 11 -20 16 -20 6 0 7 5 3 12 -4 7 -3 8 4 4 12
-7 5 -36 -9 -36 -5 0 -9 -5 -9 -11 0 -8 4 -8 13 -2 6 6 21 13 32 16 18 6 18 5
-3 -12 -26 -22 -27 -28 -7 -28 8 0 12 3 10 7 -2 4 1 7 8 7 7 0 12 -13 11 -34
-2 -30 0 -33 20 -28 15 5 17 4 7 -3 -11 -8 -11 -10 0 -15 8 -3 -2 -4 -21 -1
-35 5 -35 5 -12 -11 17 -13 20 -20 12 -30 -8 -9 -8 -15 0 -20 9 -6 14 1 11 18
0 4 4 7 10 7 6 0 9 -7 6 -15 -4 -8 -2 -17 4 -21 5 -3 7 -15 3 -26 -4 -14 -2
-18 5 -14 7 5 8 1 4 -9 -8 -23 -25 3 -17 28 3 9 1 17 -4 17 -11 0 -9 -40 2
-59 5 -7 13 -10 20 -8 8 3 12 -6 11 -31 -2 -33 -1 -34 12 -16 14 18 15 18 8
-5 -5 -16 -4 -21 4 -17 7 5 9 1 4 -11 -3 -10 -3 -15 2 -11 4 4 16 3 27 -3 15
-8 17 -13 7 -25 -9 -11 -9 -14 0 -14 8 0 10 -8 6 -21 -5 -15 -4 -19 4 -15 6 4
11 0 11 -9 0 -9 -5 -13 -11 -9 -8 4 -8 1 -1 -12 5 -11 8 -29 7 -41 -1 -12 2
-20 7 -17 4 3 6 18 3 34 -3 16 0 32 5 35 6 4 7 11 4 17 -5 7 -2 8 5 3 9 -5 10
-10 2 -18 -12 -12 -15 -31 -3 -24 4 3 8 -9 9 -26 2 -18 7 -33 13 -35 5 -2 10
-11 10 -19 0 -13 -2 -14 -17 -2 -16 12 -17 12 -6 -2 7 -9 9 -20 5 -24 -4 -5
-1 -5 5 -1 7 4 13 4 14 -1 0 -4 3 -17 6 -28 6 -27 7 -47 1 -65 -3 -8 -3 -12 0
-7 2 4 13 12 24 18 14 8 18 8 14 0 -4 -6 -2 -21 4 -33 10 -21 10 -21 -9 2
l-21 25 0 -22 c0 -13 5 -23 10 -23 6 0 10 -7 10 -15 0 -8 -5 -15 -11 -15 -5 0
-7 5 -3 12 5 7 3 8 -5 4 -9 -6 -8 -13 6 -26 10 -9 22 -15 27 -12 5 3 6 0 2 -6
-4 -6 -12 -10 -19 -8 -7 1 -9 1 -5 -1 4 -2 4 -11 1 -19 -3 -8 0 -14 7 -14 6 0
8 4 5 10 -3 6 -1 10 5 10 7 0 10 -6 7 -14 -3 -8 -1 -17 6 -19 7 -2 1 -3 -13
-2 -14 1 -19 0 -12 -2 7 -3 9 -9 5 -15 -4 -7 0 -9 10 -5 14 5 15 2 6 -20 -8
-21 -7 -24 6 -19 9 3 13 2 10 -3 -3 -5 -1 -12 5 -16 5 -3 10 -11 10 -17 0 -7
-5 -6 -14 1 -12 10 -14 9 -12 -6 2 -10 9 -18 17 -18 8 0 14 -5 14 -12 0 -6 4
-15 9 -20 5 -5 6 -3 2 5 -4 7 -2 12 6 12 10 0 9 3 -2 11 -13 9 -13 10 0 6 9
-2 14 -15 14 -35 -1 -25 3 -32 17 -32 11 0 19 5 19 11 0 5 5 7 11 3 8 -5 8 -8
0 -14 -9 -5 -8 -10 4 -20 11 -9 12 -16 5 -25 -8 -9 -8 -15 0 -20 6 -3 7 -11 4
-17 -4 -7 -2 -8 4 -4 7 4 12 2 12 -3 0 -6 5 -11 12 -11 6 0 4 8 -6 19 -11 12
-14 21 -7 26 11 6 12 5 15 -17 1 -7 7 -12 12 -11 6 1 11 -4 11 -12 0 -8 -4
-12 -9 -9 -4 3 -8 0 -8 -6 0 -6 -5 -8 -12 -4 -7 4 -8 3 -4 -4 4 -6 13 -9 21
-5 8 3 15 0 15 -7 0 -6 4 -8 10 -5 5 3 7 0 4 -8 -3 -8 -1 -18 5 -21 6 -4 8
-13 5 -21 -4 -8 -10 -12 -15 -9 -5 3 -9 0 -9 -5 0 -16 10 -14 34 6 17 15 19
15 8 1 -8 -10 -9 -19 -3 -22 5 -3 8 -14 6 -24 -1 -9 2 -23 8 -29 5 -7 6 -13 1
-13 -5 0 -2 -5 6 -11 13 -9 13 -10 0 -6 -8 2 -14 10 -12 16 1 7 -2 9 -9 5 -7
-4 -9 -3 -5 4 7 12 -19 10 -31 -2 -4 -4 -1 -6 7 -4 8 2 14 -3 12 -10 -1 -8 2
-11 7 -8 5 3 12 -1 15 -10 3 -8 10 -12 16 -9 6 3 7 -1 4 -9 -3 -9 -10 -16 -16
-16 -5 0 -7 4 -4 8 3 5 -1 9 -9 9 -12 0 -12 -3 -3 -16 7 -9 14 -18 15 -20 1
-2 9 2 18 9 10 8 15 9 15 1 0 -6 -5 -11 -11 -11 -5 0 -7 -5 -4 -10 8 -13 -1
-13 -28 0 -22 11 -22 10 0 -6 19 -14 21 -19 11 -38 -15 -26 -17 -55 -6 -62 5
-3 7 0 6 6 -2 7 7 16 20 21 15 6 21 5 17 -1 -3 -6 -12 -10 -20 -10 -8 0 -12
-8 -10 -20 4 -23 -5 -26 -23 -8 -9 9 -12 9 -12 0 0 -7 4 -12 9 -12 5 0 11 -9
14 -21 4 -15 2 -19 -9 -15 -8 3 -12 2 -9 -3 3 -6 -3 -14 -12 -20 -11 -6 -13
-11 -5 -11 10 0 10 -5 1 -21 -6 -12 -7 -19 -1 -15 15 9 30 -16 28 -44 -1 -14
3 -32 8 -40 9 -13 9 -13 -6 -2 -11 9 -15 23 -13 43 2 16 0 29 -4 29 -10 0 -8
-61 3 -78 3 -6 1 -14 -5 -18 -7 -4 -9 -3 -5 4 3 6 1 14 -6 18 -7 4 -10 4 -6
-1 4 -4 3 -16 -3 -26 -7 -15 -6 -17 6 -13 11 5 13 2 9 -10 -3 -9 -11 -13 -17
-9 -6 4 -7 1 -2 -7 6 -10 4 -12 -8 -7 -9 3 -19 2 -22 -4 -4 -5 -3 -9 2 -8 21
4 33 -2 33 -16 0 -8 -8 -15 -17 -15 -15 0 -16 -2 -3 -9 8 -6 17 -8 21 -5 4 2
9 -2 12 -9 3 -9 -4 -12 -22 -11 -20 1 -27 -3 -28 -18 -2 -20 -1 -20 12 -2 13
18 15 18 32 2 10 -11 13 -18 5 -18 -7 0 -12 5 -12 10 0 6 -4 10 -10 10 -5 0
-9 -3 -9 -7 3 -21 -2 -33 -13 -27 -7 4 -8 3 -4 -5 6 -9 12 -9 24 1 15 12 16
11 3 -4 -12 -16 -11 -18 5 -19 11 0 14 -3 6 -6 -7 -3 -25 3 -40 13 l-27 17 19
-21 c11 -12 16 -23 13 -23 -4 -1 -11 -2 -16 -3 -5 0 -13 -4 -17 -8 -3 -4 3 -6
14 -3 12 2 23 -3 26 -11 3 -9 1 -12 -4 -9 -6 3 -10 1 -10 -5 0 -7 -7 -9 -16
-6 -9 3 -12 2 -9 -5 4 -6 14 -8 22 -5 8 3 11 2 8 -3 -3 -6 3 -15 12 -21 17
-10 17 -10 -1 -8 -10 2 -21 -3 -24 -11 -3 -9 0 -11 8 -6 8 5 11 4 6 -3 -4 -6
-13 -9 -21 -5 -11 4 -13 1 -9 -11 3 -9 11 -13 17 -9 6 4 7 1 3 -6 -6 -9 -13
-8 -29 6 -12 9 -16 11 -9 3 14 -17 16 -34 2 -25 -6 3 -10 1 -10 -4 0 -6 6 -11
13 -11 9 0 9 -2 0 -8 -7 -4 -11 -18 -8 -31 3 -18 2 -21 -9 -12 -11 9 -18 8
-29 -3 -8 -8 -18 -12 -22 -8 -5 4 -5 1 -1 -5 14 -25 14 -50 0 -50 -11 0 -11 3
-1 16 10 14 10 14 -4 3 -10 -8 -15 -21 -12 -33 5 -16 8 -18 15 -7 7 9 8 8 4
-5 -3 -10 -6 -24 -6 -30 -1 -7 -7 2 -15 18 -11 22 -13 24 -9 6 4 -15 2 -21 -4
-17 -6 3 -13 2 -16 -3 -4 -5 -1 -13 5 -17 8 -5 9 -3 4 6 -5 9 -4 11 3 6 9 -5
8 -15 -3 -37 -9 -16 -20 -27 -24 -24 -5 3 -11 -2 -15 -10 -3 -8 -12 -15 -19
-15 -9 0 -13 -9 -12 -23 3 -26 -19 -32 -45 -13 -9 7 -8 3 3 -10 15 -18 15 -23
4 -33 -11 -9 -17 -8 -26 2 -6 8 -7 18 -3 22 4 5 1 5 -6 1 -8 -5 -10 -12 -4
-19 11 -13 10 -43 -2 -70 -6 -11 -16 -16 -32 -13 -13 3 -27 0 -30 -6 -4 -7 -2
-8 4 -4 8 5 12 0 12 -13 0 -12 4 -21 9 -21 5 0 7 10 4 22 -3 13 -2 19 3 15 4
-4 9 -18 11 -30 4 -43 10 -59 24 -68 9 -5 10 -9 2 -9 -6 0 -15 5 -18 10 -9 15
-25 2 -19 -15 4 -8 11 -12 18 -8 7 4 7 1 -1 -9 -7 -8 -10 -18 -6 -21 3 -4 0
-13 -6 -21 -10 -11 -9 -16 5 -24 15 -8 15 -9 0 -15 -10 -4 -15 -3 -11 3 10 16
-1 11 -16 -7 -10 -11 -10 -14 -1 -9 6 4 12 2 12 -3 0 -6 -6 -11 -12 -11 -9 0
-8 -4 2 -10 13 -9 13 -12 -3 -21 -13 -8 -15 -14 -7 -29 6 -11 8 -32 4 -47 -4
-22 -3 -25 5 -13 13 18 14 1 2 -19 -7 -11 -10 -9 -16 8 -6 21 -8 21 -20 5 -7
-10 -11 -23 -8 -29 2 -7 -3 -18 -12 -25 -12 -10 -18 -10 -33 1 -15 13 -16 12
-4 -3 11 -14 11 -21 -2 -40 -8 -13 -14 -26 -13 -30 1 -3 -2 -10 -7 -15 -5 -5
-6 -3 -2 4 12 21 -13 15 -52 -13 -20 -15 -29 -24 -19 -20 15 5 17 2 12 -15 -6
-17 -4 -20 6 -13 8 4 3 -6 -11 -23 -14 -17 -32 -29 -42 -27 -10 1 -21 -2 -24
-8 -4 -7 -2 -8 4 -4 6 3 16 -2 21 -13 8 -15 7 -22 -7 -32 -16 -13 -16 -13 -2
5 14 18 14 19 -8 5 -12 -8 -18 -15 -13 -17 6 -2 6 -13 -1 -27 -6 -14 -15 -22
-21 -18 -6 3 -7 1 -3 -6 4 -6 12 -9 17 -6 5 4 9 2 9 -4 0 -6 8 -8 18 -5 12 4
14 3 4 -4 -8 -5 -25 -8 -39 -6 -23 2 -24 1 -9 -15 19 -20 21 -35 4 -25 -6 4
-8 3 -4 -4 3 -5 1 -12 -5 -14 -15 -5 -21 -58 -8 -58 6 0 7 5 4 10 -3 6 -1 10
6 10 8 0 8 4 -1 15 -9 10 -9 15 -1 15 6 0 11 -4 11 -10 0 -5 8 -7 18 -4 16 5
16 5 0 -9 -10 -8 -15 -17 -11 -20 3 -4 1 -7 -5 -7 -6 0 -9 -9 -7 -20 2 -11 -1
-19 -7 -17 -6 1 -13 -4 -16 -12 -2 -8 0 -11 6 -7 11 7 10 -19 -1 -30 -4 -4 -2
-13 5 -21 6 -8 7 -13 2 -12 -30 5 -39 -3 -38 -33 1 -18 -3 -38 -8 -45 -5 -7
-7 -17 -4 -22 4 -5 2 -12 -4 -16 -6 -4 -7 -11 -4 -17 4 -7 2 -8 -4 -4 -7 4
-12 3 -12 -3 0 -6 -6 -8 -14 -5 -8 3 -17 0 -22 -7 -4 -8 -3 -10 5 -5 8 5 11
-2 9 -23 -2 -30 -8 -35 -37 -31 -12 1 -13 -1 -3 -13 10 -12 7 -18 -15 -31
l-28 -17 23 20 c21 18 21 20 3 18 -11 0 -18 -4 -15 -8 9 -15 -17 -20 -34 -8
-9 8 -6 0 8 -15 19 -22 21 -28 7 -23 -9 4 -25 10 -35 14 -10 4 -8 -2 8 -15 18
-16 20 -20 6 -16 -22 8 -39 -15 -25 -32 7 -8 6 -14 -1 -19 -6 -3 -7 -12 -3
-18 8 -13 -27 12 -39 28 -5 6 -5 -5 -2 -22 7 -35 -2 -42 -26 -20 -12 10 -12 9
-1 -6 13 -16 174 -17 3226 -17 3039 0 3213 1 3226 18 12 15 12 16 -2 4 -14
-10 -18 -10 -22 2 -4 9 -1 18 5 22 7 5 8 2 3 -6 -6 -9 -4 -11 4 -5 9 5 10 10
2 18 -13 13 -15 31 -3 23 5 -3 9 1 9 9 0 13 -3 13 -17 0 -15 -14 -19 -14 -31
2 -13 16 -12 17 3 5 15 -12 17 -11 16 5 0 10 3 26 7 36 4 10 3 17 -4 17 -6 0
-10 -5 -9 -11 2 -6 -3 -13 -10 -14 -7 -2 -8 -1 -2 2 7 3 7 10 -2 21 -10 12
-10 14 0 8 6 -4 12 -2 12 3 0 6 -5 11 -12 11 -6 0 -8 3 -5 6 4 4 13 2 20 -5
20 -16 40 8 25 29 -8 12 -9 12 -4 -2 7 -22 -10 -33 -18 -12 -4 9 -1 24 6 32
11 13 11 14 0 8 -9 -5 -13 -3 -11 5 3 26 -1 39 -12 39 -5 0 -7 -6 -3 -12 11
-18 12 -48 2 -42 -5 3 -7 13 -6 22 2 10 -3 16 -10 14 -8 -1 -11 2 -8 7 4 5 3
11 -1 14 -5 2 -2 2 5 1 6 -2 12 4 12 12 0 9 -5 12 -12 8 -8 -5 -7 0 2 11 14
17 13 17 -10 10 -24 -7 -24 -7 -5 9 11 8 16 16 10 16 -5 0 -4 4 4 9 9 6 10 14
5 22 -10 17 -14 70 -6 84 10 17 11 35 1 29 -5 -3 -7 -9 -4 -14 3 -5 -9 -16
-27 -25 -31 -14 -32 -14 -10 1 26 20 29 35 5 28 -10 -2 -8 1 5 7 25 14 29 26
7 26 -8 0 -12 -4 -9 -9 3 -4 0 -8 -6 -8 -7 0 -10 7 -6 15 3 8 -2 19 -12 24
-23 14 -6 14 20 0 15 -8 19 -8 14 0 -4 6 -1 11 6 11 7 0 2 7 -10 16 -13 9 -19
20 -15 27 11 17 13 38 3 32 -4 -2 -7 7 -7 21 0 19 4 24 16 20 11 -4 10 -1 -4
9 -20 16 -27 58 -13 87 6 13 5 16 -6 12 -8 -3 -13 -14 -11 -25 2 -10 0 -21 -5
-24 -5 -3 -7 3 -5 15 2 11 0 22 -6 25 -14 10 -11 25 5 19 8 -3 17 0 22 7 4 7
3 10 -3 6 -17 -11 -58 27 -47 44 11 18 12 32 1 40 -5 3 -3 9 5 11 10 4 14 -3
14 -27 0 -19 -4 -31 -8 -29 -4 3 -8 1 -8 -4 0 -15 32 -24 44 -12 8 8 7 10 -4
5 -12 -4 -16 1 -16 20 0 15 5 24 11 21 7 -2 12 2 12 9 0 7 -6 11 -13 8 -9 -3
-12 5 -9 29 3 24 2 29 -5 18 -8 -12 -10 -10 -10 8 0 16 4 21 13 16 6 -4 9 -4
5 1 -4 4 0 14 10 21 16 12 16 12 -3 11 -16 -2 -20 3 -18 25 1 16 -2 28 -6 28
-5 0 -12 8 -16 18 -5 14 -4 15 6 4 7 -6 18 -12 23 -12 6 0 4 5 -4 10 -12 8
-13 12 -2 19 11 7 10 9 -3 14 -11 5 -13 11 -7 24 5 10 7 24 5 31 -4 10 -8 10
-21 0 -15 -11 -15 -11 -6 2 11 16 11 44 0 71 -8 19 20 34 30 17 5 -7 2 -8 -6
-3 -9 6 -11 4 -5 -5 6 -9 4 -11 -4 -5 -10 6 -11 3 -3 -11 5 -11 7 -26 4 -34
-2 -8 -1 -12 3 -8 4 4 8 18 9 30 1 14 7 22 16 20 11 -3 11 0 1 12 -7 8 -10 20
-7 25 4 6 -5 7 -26 1 -30 -9 -31 -8 -14 5 11 8 23 15 28 15 4 0 8 5 8 11 0 8
-4 8 -13 0 -11 -8 -14 -5 -14 19 0 17 4 30 9 30 4 0 8 5 8 10 0 7 -7 7 -22 0
l-23 -11 23 17 c12 9 22 23 22 31 0 8 4 12 8 9 5 -3 9 1 9 9 0 18 -19 25 -48
20 -12 -2 -18 -1 -15 3 4 4 12 8 17 8 5 1 14 2 19 3 7 1 6 7 -2 15 -7 8 -17
12 -21 9 -5 -3 -3 4 5 16 13 22 34 30 22 9 -4 -8 -3 -10 2 -5 5 5 9 12 9 15 0
4 4 13 8 20 10 15 0 33 -16 26 -7 -2 -18 5 -25 16 -7 12 -8 20 -2 20 5 0 10
-4 10 -10 0 -5 7 -10 15 -10 8 0 15 5 15 11 0 5 -5 7 -12 3 -8 -5 -9 -2 -5 9
3 10 3 17 -1 17 -4 0 -13 9 -19 20 -9 14 -10 21 -1 26 7 4 8 3 4 -4 -4 -6 4
-16 16 -23 13 -6 20 -8 16 -4 -4 5 -2 15 5 24 11 14 10 15 -7 1 -18 -14 -19
-14 -7 8 13 24 -2 68 -20 57 -5 -4 -9 -2 -9 3 0 6 7 13 16 16 10 4 13 2 8 -6
-4 -7 -3 -8 4 -4 21 13 12 26 -14 22 -21 -4 -24 -3 -14 10 7 7 8 14 3 14 -5 0
-10 6 -10 13 0 8 6 14 12 14 7 0 11 -11 9 -24 -1 -13 2 -21 6 -18 5 3 7 19 5
35 -3 18 0 28 5 25 6 -4 10 -1 10 4 0 15 -27 14 -33 -1 -4 -10 -6 -10 -6 0 -1
7 6 15 14 18 17 7 10 25 -8 20 -7 -1 -9 -1 -4 1 4 3 4 10 0 16 -4 7 2 5 12 -3
17 -14 18 -13 12 2 -3 10 -3 17 1 17 19 -3 22 2 8 16 -16 17 -11 46 7 42 7 -1
11 4 9 11 -1 8 2 11 8 7 5 -3 19 0 31 8 l21 15 -22 7 c-17 6 -19 9 -9 16 8 5
21 2 34 -9 15 -13 17 -13 8 -1 -7 8 -9 26 -6 39 5 18 3 21 -8 15 -12 -8 -12
-6 0 8 17 21 20 59 6 70 -6 5 -4 7 5 4 17 -4 21 -33 7 -62 -7 -15 -7 -17 2 -9
6 6 13 20 16 32 6 32 15 43 27 36 7 -4 8 -2 4 5 -6 9 -11 9 -21 1 -9 -8 -14
-6 -19 5 -3 9 -2 13 3 10 5 -3 12 -1 16 5 3 5 -1 10 -9 10 -19 0 -21 16 -4 26
7 4 8 3 4 -4 -6 -11 3 -14 32 -11 4 0 6 7 4 16 -2 8 1 13 5 10 5 -3 10 4 10
16 2 19 0 18 -16 -7 -15 -23 -19 -25 -25 -11 -9 24 -7 32 3 16 7 -11 11 -10
19 6 11 20 36 24 62 8 12 -7 13 -6 3 7 -7 8 -9 19 -5 24 4 4 0 3 -10 -4 -12
-9 -18 -10 -23 -2 -4 6 -4 14 -1 17 3 4 6 1 6 -6 0 -7 5 -9 10 -6 6 4 8 11 4
16 -3 5 0 8 8 7 8 -2 12 5 10 17 -2 16 -1 17 7 5 5 -8 8 -17 5 -21 -5 -8 27
-22 34 -14 3 3 0 5 -6 5 -7 0 -12 12 -11 28 0 15 3 21 6 15 2 -7 12 -13 21
-13 11 0 13 3 6 8 -6 4 -10 19 -10 34 0 19 3 24 11 18 20 -17 26 2 8 24 -17
20 -17 20 0 7 15 -12 21 -9 18 11 0 4 13 6 31 4 l32 -4 -25 19 c-13 10 -20 19
-15 19 5 0 3 6 -4 14 -6 8 -19 12 -28 10 -15 -5 -14 -4 1 6 9 6 14 16 11 22
-4 7 -2 8 4 4 11 -7 17 6 13 27 -1 5 4 5 10 1 9 -5 10 -2 6 9 -3 9 -3 16 1 16
20 -3 25 2 12 12 -13 9 -13 10 2 6 9 -3 19 -1 22 6 3 9 5 9 5 0 1 -7 6 -13 12
-13 6 0 9 7 5 15 -3 8 -1 15 4 15 5 0 7 7 4 15 -4 8 -1 16 5 16 6 1 17 2 24 3
6 0 12 6 13 11 0 6 4 18 9 28 6 15 10 16 16 5 14 -21 10 -31 -8 -23 -14 5 -15
3 -6 -6 16 -16 35 -1 28 22 -4 10 -2 19 4 19 5 0 11 -8 13 -17 3 -15 5 -14 10
4 3 13 1 26 -4 30 -7 4 -8 1 -3 -7 5 -9 4 -11 -4 -6 -9 6 -9 11 -1 21 8 10 8
14 -2 17 -8 3 -7 6 4 11 13 4 16 1 13 -14 -4 -20 9 -26 20 -9 3 6 1 10 -6 10
-7 0 -9 3 -6 6 3 4 2 15 -4 26 -8 15 -7 18 3 16 8 -2 14 1 15 6 1 5 7 12 15
17 9 6 6 8 -9 6 -12 0 -20 -4 -17 -8 6 -10 -23 -5 -33 5 -4 4 -2 6 6 4 7 -2
16 3 19 11 2 8 1 11 -4 8 -5 -3 -9 8 -9 23 -1 16 3 26 7 24 4 -3 8 2 8 11 0 9
-4 14 -8 11 -5 -3 -9 1 -9 9 0 8 4 12 9 9 12 -8 6 29 -7 39 -6 5 -2 6 8 3 12
-4 17 -2 14 6 -2 7 -11 12 -18 10 -8 -2 -10 0 -6 5 5 4 14 8 20 8 7 0 13 6 13
13 1 6 3 15 4 20 1 4 2 11 1 15 -1 5 3 6 9 2 5 -3 10 1 10 10 0 8 11 20 25 25
14 5 25 12 25 14 0 3 -7 3 -15 0 -8 -4 -15 -1 -15 5 0 6 4 11 10 11 5 0 8 14
6 30 -2 20 2 34 13 40 9 5 11 10 5 10 -7 0 -11 18 -11 43 0 24 -3 50 -8 58 -6
11 -5 12 6 2 16 -15 33 -17 24 -3 -3 6 -2 10 3 10 4 0 8 15 8 33 -1 17 6 37
14 44 13 10 11 11 -8 6 -13 -3 -21 -11 -18 -18 2 -7 -1 -18 -7 -24 -8 -8 -8
-11 1 -11 6 0 9 -7 6 -15 -4 -8 -10 -13 -14 -10 -9 6 -8 24 2 40 4 6 3 17 -3
25 -5 8 -9 20 -9 25 0 6 4 4 9 -4 7 -11 13 -9 32 10 13 13 28 23 32 21 5 -1 6
2 2 8 -3 6 -10 8 -15 5 -11 -7 -32 30 -23 39 3 3 0 6 -7 6 -9 0 -7 5 6 14 14
11 23 12 34 3 10 -7 9 -4 -2 8 -13 14 -20 16 -31 7 -11 -9 -14 -8 -14 3 0 7 5
13 11 12 6 -1 10 9 8 22 -2 14 0 21 6 17 6 -4 14 -1 18 5 4 8 3 9 -5 5 -6 -4
-14 0 -18 11 -4 10 -11 21 -17 25 -7 5 -4 8 6 8 9 0 19 -8 22 -17 2 -10 4 -7
3 7 -2 15 -8 24 -15 22 -8 -1 -11 2 -6 9 3 6 0 16 -7 21 -11 8 -11 9 2 5 9 -3
21 4 29 16 12 20 11 21 -2 9 -13 -10 -17 -10 -21 3 -4 8 -3 14 1 14 19 -3 26
2 13 10 -10 7 -11 13 -1 31 9 17 9 21 0 15 -9 -5 -10 -1 -5 16 7 20 6 22 -7
12 -12 -10 -15 -10 -15 2 0 8 4 12 9 9 4 -3 8 9 8 26 0 17 4 29 8 26 4 -2 8 3
8 13 0 12 -6 17 -18 13 -10 -2 -18 1 -18 7 0 6 7 11 17 11 9 0 14 3 10 6 -3 4
-21 1 -39 -5 l-33 -11 25 22 c14 13 20 19 13 14 -9 -6 -18 -4 -26 4 -9 9 -9
11 0 6 6 -3 15 -1 19 5 5 8 3 9 -5 5 -8 -5 -14 0 -18 13 -3 11 -9 18 -14 15
-5 -3 -6 3 -2 12 5 13 3 15 -8 9 -8 -5 -5 2 6 15 l20 23 -24 -8 c-21 -6 -22
-5 -10 7 7 8 20 14 29 13 9 -1 10 0 2 2 -10 4 -10 10 3 29 8 13 11 24 5 24 -5
0 -10 -5 -10 -11 0 -5 -5 -7 -10 -4 -8 5 -7 11 1 21 14 17 -2 19 -19 2 -7 -7
-12 -8 -12 -4 0 5 8 15 17 22 14 9 21 10 32 1 12 -10 12 -9 0 10 -12 20 -15
21 -29 8 -15 -13 -17 -13 -17 0 0 8 4 12 9 9 14 -9 9 9 -9 30 -17 19 -17 20
-1 7 15 -11 19 -11 24 3 3 9 10 14 14 11 5 -3 12 0 16 6 4 7 3 10 -2 7 -5 -3
-20 -2 -33 3 -19 7 -22 12 -13 21 14 14 16 32 4 24 -5 -3 -8 8 -8 24 0 16 3
27 8 24 14 -9 9 9 -9 30 -17 20 -17 20 0 6 17 -12 18 -12 15 6 -1 10 -10 22
-18 26 -11 6 -10 7 5 5 15 -2 20 -10 19 -29 0 -15 2 -25 5 -23 2 3 10 0 17 -6
8 -7 14 -7 19 1 4 6 1 9 -6 8 -6 -2 -14 3 -17 11 -3 9 0 11 9 6 8 -5 6 0 -3
12 -10 11 -18 23 -18 28 0 4 8 1 18 -6 16 -13 16 -13 -1 7 -9 11 -14 24 -10
27 8 8 -48 58 -58 51 -4 -2 -11 1 -15 7 -4 7 -3 9 3 6 6 -4 13 2 16 13 3 13 0
20 -10 20 -8 0 -12 -4 -9 -9 3 -5 -1 -11 -9 -14 -9 -4 -12 -1 -9 7 3 8 1 17
-5 20 -6 4 -7 14 -4 23 5 12 3 14 -7 8 -9 -6 -11 -4 -5 5 6 9 4 12 -7 8 -11
-5 -14 0 -13 20 1 15 -1 32 -4 37 -3 6 -6 13 -7 18 -1 4 -3 9 -4 12 -1 3 -3
11 -4 18 -1 6 -11 11 -24 11 -13 -1 -20 1 -17 5 4 3 12 6 18 6 7 0 13 10 15
23 2 12 8 20 13 17 5 -3 6 1 2 10 -4 12 -8 13 -13 5 -5 -8 -10 -6 -15 7 -5 10
-7 22 -6 26 1 5 -3 6 -9 2 -5 -3 -10 -2 -10 4 0 5 6 12 13 15 6 2 3 4 -8 3
-11 -2 -25 -6 -31 -10 -8 -4 -11 4 -10 25 0 20 -5 33 -14 35 -12 4 -12 3 -2
-5 11 -7 10 -11 -4 -16 -9 -3 -19 -4 -22 -1 -3 3 -1 5 4 5 15 0 15 50 0 66
-11 11 -16 11 -19 1 -3 -6 -6 -7 -6 -1 -1 5 8 20 19 32 12 12 16 22 9 22 -9 0
-9 3 0 14 8 10 9 16 1 21 -6 4 -10 3 -9 -2 1 -4 0 -11 -1 -15 -1 -5 -3 -12 -4
-18 0 -5 -4 -10 -8 -10 -5 0 -10 0 -13 0 -2 0 0 11 5 24 6 17 5 29 -6 42 -10
14 -14 15 -12 4 2 -8 7 -18 12 -21 4 -4 3 -10 -3 -13 -9 -6 -16 7 -9 17 1 1
-4 12 -11 25 -10 19 -10 26 1 40 11 13 11 15 -2 10 -8 -3 -21 0 -27 7 -10 10
-9 14 3 19 8 3 13 2 10 -2 -3 -5 1 -9 9 -9 11 0 12 4 4 14 -9 10 -8 13 1 13
10 0 10 3 0 15 -7 8 -16 12 -21 9 -5 -3 -9 0 -9 6 0 6 -5 8 -11 4 -8 -5 -8 -1
0 14 14 27 14 35 -1 26 -10 -6 -10 -4 0 7 15 16 16 33 2 24 -6 -4 -9 -1 -8 7
2 7 -3 12 -9 10 -7 -1 -13 2 -13 8 0 5 4 10 9 10 5 0 9 14 9 31 -1 18 -4 25
-9 18 -4 -7 -5 -19 -2 -28 4 -13 3 -13 -5 -2 -6 8 -7 21 -4 30 5 14 4 14 -11
2 -10 -8 -20 -11 -24 -7 -3 3 -2 6 4 6 6 0 13 9 16 19 5 22 -20 23 -34 0 -12
-19 -11 -2 1 21 12 22 -13 50 -26 29 -5 -8 -3 -9 6 -4 9 6 11 4 5 -5 -6 -9 -4
-11 6 -5 11 6 12 5 1 -6 -10 -11 -15 -9 -28 9 -8 12 -19 20 -23 18 -8 -5 -10
3 -13 47 -2 22 -14 37 -32 37 -6 0 -1 -7 10 -16 18 -14 18 -15 -4 -4 -23 11
-25 37 -3 32 7 -1 9 2 6 8 -4 6 -10 9 -13 6 -3 -3 -11 -1 -18 5 -8 7 -14 6
-20 -2 -5 -8 -3 -9 6 -4 9 6 11 4 5 -5 -6 -9 -4 -11 6 -5 11 7 12 6 2 -6 -10
-12 -10 -18 0 -29 10 -12 9 -12 -5 -1 -10 7 -16 17 -13 21 6 10 -30 42 -38 33
-4 -3 -7 -1 -7 5 0 15 13 15 28 0 9 -9 12 -9 12 0 0 7 -5 12 -10 12 -12 0 -9
22 5 33 6 4 2 7 -9 5 -10 -2 -21 3 -24 11 -2 8 0 11 5 8 5 -3 15 -2 22 2 9 6
10 11 2 15 -6 4 -11 2 -11 -4 0 -6 -4 -8 -10 -5 -5 3 -10 13 -10 21 0 8 4 13
8 10 5 -3 9 1 9 9 0 20 -7 19 -23 -2 -7 -11 -9 -22 -4 -28 5 -6 4 -17 -2 -25
-8 -12 -9 -12 -4 2 3 10 1 20 -4 23 -6 4 -3 19 6 38 l17 32 -23 -20 -24 -20
17 24 c12 18 13 29 6 43 -5 10 -7 18 -4 18 3 0 1 10 -6 21 -8 16 -8 23 1 29 9
5 9 9 1 14 -6 4 -11 2 -11 -5 0 -16 -15 -1 -15 14 0 7 6 18 15 25 13 11 13 11
-1 6 -10 -3 -19 2 -23 11 -3 10 -12 15 -19 12 -7 -3 -13 3 -13 13 0 10 4 16 8
14 4 -3 8 0 8 6 0 6 3 9 8 7 4 -3 8 6 8 19 1 16 -3 24 -15 24 -11 0 -12 -3 -4
-8 8 -5 9 -13 3 -22 -8 -12 -10 -11 -11 5 -1 11 0 25 1 30 2 6 2 20 1 33 0 13
3 21 8 17 11 -6 26 13 17 22 -3 4 -21 -4 -39 -17 -26 -19 -29 -20 -14 -3 19
22 23 38 7 28 -6 -4 -9 -1 -8 7 2 7 -3 12 -10 10 -8 -1 -11 2 -7 8 5 8 11 7
21 -1 10 -8 14 -8 14 -1 0 6 6 9 14 6 8 -3 17 0 22 7 4 8 3 10 -5 5 -6 -4 -19
-2 -28 6 -14 11 -16 11 -8 -1 6 -10 4 -12 -4 -6 -9 5 -9 11 -3 17 6 6 8 16 5
24 -4 10 -8 10 -18 1 -7 -7 -10 -16 -7 -21 3 -5 0 -6 -7 -2 -9 6 -9 11 -1 21
13 15 -3 30 -20 20 -6 -4 -9 -1 -8 6 2 7 -2 13 -9 14 -6 0 -15 4 -20 9 -4 5
-3 6 3 3 7 -4 15 0 18 9 8 22 8 24 -6 20 -7 -1 -10 -1 -5 1 13 8 7 25 -7 20
-10 -4 -13 -1 -9 8 3 8 8 13 12 10 4 -2 8 2 8 10 0 8 -4 12 -9 9 -8 -5 -12 9
-9 36 2 13 0 13 -8 1 -6 -10 -6 -21 0 -32 11 -21 -1 -31 -21 -18 -8 5 -10 9
-4 9 6 0 11 14 12 30 0 19 -4 30 -13 30 -8 0 -17 4 -20 10 -3 5 0 7 8 4 8 -3
14 1 14 10 0 8 -4 13 -9 10 -8 -5 -10 6 -12 51 0 11 -7 23 -16 27 -12 5 -12 7
3 7 9 1 17 4 17 7 0 4 -8 13 -17 21 -16 13 -16 13 5 3 29 -14 41 -6 14 9 -11
6 -22 18 -26 28 -5 15 -4 15 9 -1 8 -11 15 -16 15 -12 0 5 6 3 14 -3 10 -8 16
-9 21 -1 4 6 1 9 -6 8 -7 -2 -14 2 -14 7 -2 25 -17 55 -25 50 -5 -3 -11 -1
-15 5 -4 6 -10 8 -14 6 -4 -3 -8 1 -8 9 0 13 4 12 19 -2 14 -13 18 -13 18 -2
1 10 5 8 15 -5 8 -11 15 -15 15 -9 0 7 -5 15 -10 18 -6 4 -8 11 -5 16 4 5 0
12 -9 15 -8 3 -12 13 -9 22 4 15 3 15 -6 2 -15 -21 -14 -30 5 -30 8 0 12 -4 9
-10 -3 -6 -23 1 -46 17 -27 18 -37 29 -30 36 7 7 6 16 -6 29 -12 13 -13 21 -5
31 9 10 8 18 -4 33 -14 18 -14 18 -4 -6 10 -24 10 -24 -4 -6 -14 18 -14 22 -1
42 18 28 19 34 4 34 -5 0 -7 -6 -3 -12 5 -8 1 -8 -12 2 -29 22 -30 24 -13 17
14 -5 17 1 14 38 -1 25 2 42 7 39 4 -3 5 -10 2 -16 -4 -6 -3 -8 3 -5 11 7 11
43 0 53 -15 15 -6 26 10 13 11 -10 14 -10 9 -1 -4 7 -2 12 4 12 6 0 8 5 4 11
-5 8 -9 8 -14 -1 -5 -8 -10 -9 -14 -2 -4 6 2 16 11 22 11 7 12 10 3 7 -14 -3
-55 61 -45 71 3 3 5 -1 5 -9 1 -10 5 -9 15 5 13 18 14 18 12 -2 0 -11 -5 -18
-10 -15 -5 3 -4 -4 2 -16 7 -11 13 -21 14 -21 6 0 1 69 -5 75 -4 4 -3 16 3 26
7 13 6 19 -2 19 -6 0 -8 7 -5 16 3 8 2 13 -3 10 -5 -3 -11 1 -15 9 -3 8 0 17
6 21 6 4 8 3 5 -3 -3 -5 1 -10 9 -10 10 0 11 4 4 11 -14 14 -13 29 2 20 7 -5
8 -3 4 5 -6 9 -13 8 -29 -6 -11 -10 -17 -12 -13 -5 4 7 2 21 -6 30 -12 16 -11
16 6 2 18 -14 18 -13 11 10 -4 14 -13 28 -19 32 -8 6 -8 8 1 8 7 0 17 -8 22
-17 9 -15 10 -16 11 -2 0 9 -11 21 -25 27 -19 9 -25 9 -25 -1 0 -8 -4 -7 -10
3 -6 9 -6 18 0 24 26 26 6 31 -42 11 -11 -4 -18 -3 -18 5 0 6 4 9 9 5 5 -3 12
-1 16 4 7 12 -45 4 -61 -10 -17 -14 -26 17 -13 44 9 19 8 20 -3 6 -15 -19 -65
-22 -71 -5 -2 6 -2 1 0 -11 2 -13 -2 -23 -8 -23 -7 0 -9 3 -6 6 3 4 2 14 -3
24 -9 17 -46 20 -71 4 -7 -4 -9 -3 -5 4 9 15 -574 13 -593 -2 -11 -8 -13 -8
-7 2 5 8 0 12 -14 12 -13 0 -19 -4 -14 -12 5 -8 3 -8 -7 -2 -14 9 -76 14 -83
6z m34 -8 c0 -8 -19 -13 -24 -6 -3 5 1 9 9 9 8 0 15 -2 15 -3z m724 -2 c3 -5
-1 -9 -9 -9 -8 0 -12 4 -9 9 3 4 7 8 9 8 2 0 6 -4 9 -8z m110 -38 c3 -8 2 -12
-4 -9 -6 3 -10 10 -10 16 0 14 7 11 14 -7z m109 -24 c-10 -11 -19 -20 -21 -20
-1 0 2 9 8 20 6 11 15 20 20 20 6 0 2 -9 -7 -20z m28 -87 c13 -16 12 -17 -3
-4 -10 7 -18 15 -18 17 0 8 8 3 21 -13z m-5951 -23 c-6 -11 -13 -20 -16 -20
-2 0 0 9 6 20 6 11 13 20 16 20 2 0 0 -9 -6 -20z m224 2 c3 -5 -1 -9 -9 -9 -8
0 -12 4 -9 9 3 4 7 8 9 8 2 0 6 -4 9 -8z m181 -34 c5 4 5 1 1 -6 -6 -10 -11
-10 -22 -1 -8 6 -14 14 -14 16 0 3 6 0 13 -6 8 -6 18 -7 22 -3z m5571 -17 c-4
-5 -1 -11 6 -13 14 -5 20 -58 6 -58 -4 0 -6 11 -4 24 3 16 -1 27 -10 30 -13 5
-11 26 2 26 3 0 3 -4 0 -9z m-5466 -31 c6 -11 7 -20 2 -20 -6 0 -12 9 -15 20
-3 11 -3 20 -1 20 2 0 8 -9 14 -20z m74 -11 c-3 -5 -10 -7 -15 -3 -5 3 -7 10
-3 15 3 5 10 7 15 3 5 -3 7 -10 3 -15z m-690 -5 c3 -8 2 -12 -4 -9 -6 3 -10
10 -10 16 0 14 7 11 14 -7z m6102 -129 c1 -8 -1 -17 -5 -19 -4 -3 -7 6 -7 19
0 25 8 25 12 0z m-5043 -21 c-1 -5 -7 -10 -15 -12 -9 -2 -8 0 2 7 13 9 8 15
-12 13 -3 -1 -9 6 -12 15 -6 14 -4 14 16 1 13 -9 22 -19 21 -24z m3641 -22 c3
-5 -1 -9 -9 -9 -8 0 -12 4 -9 9 3 4 7 8 9 8 2 0 6 -4 9 -8z m1416 -9 c0 -3 -6
-3 -14 0 -7 3 -20 0 -27 -6 -11 -10 -11 -9 0 5 11 15 41 15 41 1z m-1463 -18
c4 -4 2 -5 -4 -1 -8 4 -13 2 -14 -6 0 -11 -2 -11 -6 0 -4 10 -10 9 -27 -5 -21
-18 -21 -18 -3 4 18 21 40 24 54 8z m-3540 -10 c0 -8 -4 -12 -9 -9 -5 3 -6 10
-3 15 9 13 12 11 12 -6z m4969 -26 c1 -19 -1 -26 -6 -19 -4 7 -6 20 -5 29 7
32 10 29 11 -10z m-1540 -54 c-2 -7 1 -18 7 -25 9 -10 9 -11 0 -6 -7 4 -17 15
-22 25 -8 13 -6 18 5 18 8 0 13 -6 10 -12z m1544 -35 c-6 -11 -13 -20 -16 -20
-2 0 0 9 6 20 6 11 13 20 16 20 2 0 0 -9 -6 -20z m-1610 -30 c0 -5 -5 -10 -11
-10 -5 0 -7 5 -4 10 3 6 8 10 11 10 2 0 4 -4 4 -10z m1625 -20 c3 -5 1 -10 -4
-10 -6 0 -11 5 -11 10 0 6 2 10 4 10 3 0 8 -4 11 -10z m-1809 -53 c1 -9 -2
-15 -7 -11 -5 3 -7 10 -4 15 4 5 2 9 -4 9 -5 0 -11 -8 -13 -17 -3 -15 -5 -15
-10 3 -4 17 -1 21 15 20 11 -1 21 -9 23 -19z m48 14 c3 -5 -2 -15 -11 -22 -12
-10 -14 -10 -9 -1 4 7 2 12 -6 12 -9 0 -9 3 2 10 18 12 18 12 24 1z m61 -1 c3
-5 1 -10 -4 -10 -6 0 -11 5 -11 10 0 6 2 10 4 10 3 0 8 -4 11 -10z m-2935 -30
c0 -5 -5 -10 -11 -10 -5 0 -7 5 -4 10 3 6 8 10 11 10 2 0 4 -4 4 -10z m2370
-21 c12 -8 10 -9 -9 -4 -17 5 -22 4 -16 -5 5 -9 4 -11 -4 -6 -6 4 -9 12 -6 17
8 12 16 11 35 -2z m-530 -14 c0 -8 -4 -15 -10 -15 -5 0 -7 7 -4 15 4 8 8 15
10 15 2 0 4 -7 4 -15z m212 8 c-6 -2 -9 -10 -6 -15 4 -7 2 -8 -5 -4 -6 4 -18
2 -26 -4 -8 -7 -15 -8 -15 -3 0 10 38 32 55 32 6 -1 4 -3 -3 -6z m211 -10 c-3
-7 -6 -13 -8 -13 -2 0 -5 6 -8 13 -3 8 1 14 8 14 7 0 11 -6 8 -14z m-193 -29
c0 -8 -19 -13 -24 -6 -3 5 1 9 9 9 8 0 15 -2 15 -3z m-410 -39 c0 -2 -6 -5
-13 -8 -8 -3 -14 1 -14 8 0 7 6 11 14 8 7 -3 13 -6 13 -8z m3094 -11 c3 -8 2
-12 -4 -9 -6 3 -10 10 -10 16 0 14 7 11 14 -7z m-3171 -30 c-4 -13 -26 -11
-30 3 -2 6 4 10 14 9 10 -2 17 -7 16 -12z m22 -24 c-3 -5 -12 -10 -18 -10 -7
0 -6 4 3 10 19 12 23 12 15 0z m-120 -10 c4 -6 1 -9 -7 -8 -7 2 -12 -2 -11 -9
1 -6 -5 -10 -15 -8 -9 1 -20 -3 -24 -9 -5 -8 -8 -7 -8 2 0 7 -5 10 -10 7 -8
-5 -7 -12 2 -23 7 -10 8 -14 4 -10 -5 4 -16 2 -25 -5 -14 -11 -14 -10 -2 6 7
9 10 17 6 17 -4 0 -2 6 4 14 7 8 21 13 31 11 10 -2 24 3 31 11 14 17 16 17 24
4z m-1030 -28 c-3 -3 -11 0 -18 7 -9 10 -8 11 6 5 10 -3 15 -9 12 -12z m923
-10 c2 -7 -2 -11 -10 -10 -7 2 -12 -3 -10 -11 3 -12 0 -12 -12 -1 -9 7 -16 9
-16 5 0 -5 -3 -5 -7 -2 -8 9 28 37 41 34 6 -2 12 -9 14 -15z m-928 -7 c0 -2
-6 -5 -13 -8 -8 -3 -14 1 -14 8 0 7 6 11 14 8 7 -3 13 -6 13 -8z m814 -19 c-7
-18 -34 -22 -34 -5 0 5 5 7 10 4 6 -3 13 1 16 10 4 9 8 14 10 12 3 -2 2 -12
-2 -21z m40 0 c-3 -9 -10 -13 -15 -10 -5 3 -3 11 4 19 15 16 19 13 11 -9z
m-677 -42 c-3 -3 -12 -4 -19 -1 -8 3 -5 6 6 6 11 1 17 -2 13 -5z m4104 -31
c13 -16 12 -17 -3 -4 -10 7 -18 15 -18 17 0 8 8 3 21 -13z m-3844 -2 c10 9 13
7 13 -5 0 -10 -4 -15 -9 -11 -5 3 -13 1 -16 -5 -5 -8 -12 -7 -22 2 -17 13 -20
13 -40 -4 -9 -7 -13 -7 -13 1 0 6 5 12 10 12 6 1 14 2 19 3 5 0 13 4 17 9 4 4
12 3 18 -3 6 -6 14 -6 23 1z m57 -2 c8 12 42 7 39 -5 -2 -5 -7 -10 -13 -10 -5
-1 -11 -2 -12 -4 -2 -1 -12 -3 -23 -4 -14 -2 -21 3 -21 15 0 13 4 15 12 8 8
-6 14 -6 18 0z m116 -4 c17 10 11 -1 -10 -20 -19 -17 -20 -17 -14 -2 3 10 3
17 -2 16 -5 -1 -16 -1 -24 0 -13 1 -13 2 0 11 9 5 19 5 27 -1 7 -6 17 -8 23
-4z m3695 -25 c3 -5 1 -10 -4 -10 -6 0 -11 5 -11 10 0 6 2 10 4 10 3 0 8 -4
11 -10z m-6217 -344 c-2 -1 -12 -8 -23 -16 -18 -14 -19 -13 -8 1 7 9 10 19 6
23 -4 4 1 4 10 0 10 -3 17 -7 15 -8z m6387 -86 c-3 -5 -1 -10 6 -10 7 0 10 -2
7 -5 -3 -3 -13 -2 -22 1 -14 5 -15 9 -4 15 17 11 20 11 13 -1z m32 -84 c5 -11
9 -28 8 -36 0 -8 3 -18 8 -21 5 -4 4 -10 -2 -13 -10 -6 -13 0 -10 20 0 4 -5
11 -13 15 -10 7 -10 9 0 9 10 0 10 5 2 20 -6 12 -16 18 -23 14 -7 -4 -9 -4 -5
1 4 4 0 14 -10 22 -15 12 -14 12 9 2 15 -6 31 -21 36 -33z m58 -196 c3 -5 1
-10 -4 -10 -6 0 -11 5 -11 10 0 6 2 10 4 10 3 0 8 -4 11 -10z m85 -120 c6 -11
8 -20 6 -20 -3 0 -10 9 -16 20 -6 11 -8 20 -6 20 3 0 10 -9 16 -20z m-1434
-29 c227 -56 471 -170 741 -345 203 -132 238 -162 346 -296 42 -52 101 -122
131 -155 31 -33 62 -74 71 -91 17 -37 103 -557 130 -794 2 -19 7 -57 10 -85
13 -108 15 -134 21 -260 l7 -130 -51 -110 c-27 -60 -62 -139 -77 -175 -15 -36
-56 -119 -91 -186 -51 -95 -87 -145 -167 -235 -119 -134 -128 -143 -187 -191
-108 -87 -218 -133 -340 -143 -143 -11 -169 -16 -212 -40 -63 -35 -357 -130
-475 -154 -172 -35 -293 -44 -548 -38 -224 4 -246 6 -329 31 -208 63 -409 203
-631 442 -66 70 -214 224 -330 341 -118 120 -220 232 -232 256 -110 212 -150
317 -167 442 -3 22 -10 72 -16 110 -5 39 -10 140 -10 226 0 155 0 156 26 180
82 76 307 364 442 565 104 154 142 197 255 286 51 39 98 78 106 85 23 24 124
89 195 127 193 104 560 288 628 315 109 44 155 49 428 45 205 -2 258 -6 326
-23z m-4875 -200 c5 8 9 9 9 3 0 -6 -6 -16 -13 -22 -10 -8 -13 -6 -14 11 0 12
1 16 4 8 5 -11 7 -11 14 0z m6509 -62 c0 -4 -8 -9 -18 -11 -10 -3 -19 0 -19 6
0 7 9 12 19 12 10 0 18 -3 18 -7z m-6495 -28 c3 -5 2 -12 -3 -15 -5 -3 -9 1
-9 9 0 17 3 19 12 6z m6493 -86 c-3 -3 -9 2 -12 12 -6 14 -5 15 5 6 7 -7 10
-15 7 -18z m17 -45 c3 -5 1 -10 -4 -10 -6 0 -11 5 -11 10 0 6 2 10 4 10 3 0 8
-4 11 -10z m152 -244 c-2 -5 -9 -11 -15 -12 -7 -1 -8 0 -2 3 5 2 10 9 10 14 0
6 -5 7 -10 4 -6 -4 -10 -3 -9 2 3 18 -2 33 -10 31 -5 -2 -9 0 -10 5 -4 27 2
27 24 -3 14 -19 24 -39 22 -44z m-6487 -57 c0 -4 -6 -9 -13 -12 -8 -3 -14 0
-14 7 0 7 6 13 14 13 7 0 13 -4 13 -8z m90 -119 c0 -5 -5 -10 -11 -10 -5 0 -7
5 -4 10 3 6 8 10 11 10 2 0 4 -4 4 -10z m6555 -131 c2 -9 -3 -16 -9 -16 -7 0
-13 9 -13 19 -2 23 19 19 22 -3z m-6501 -15 c5 -14 4 -15 -9 -4 -17 14 -19 20
-6 20 5 0 12 -7 15 -16z m8 -62 c-7 -2 -9 -9 -5 -15 3 -7 2 -8 -2 -4 -16 14
-14 36 3 29 10 -4 12 -7 4 -10z m23 -32 c-3 -5 -14 -10 -23 -10 -15 0 -15 2
-2 10 20 13 33 13 25 0z m45 -220 c0 -5 -2 -10 -4 -10 -3 0 -8 5 -11 10 -3 6
-1 10 4 10 6 0 11 -4 11 -10z m6430 -20 c0 -5 -7 -7 -15 -4 -8 4 -15 8 -15 10
0 2 7 4 15 4 8 0 15 -4 15 -10z m5 -137 c1 -12 -2 -20 -7 -17 -5 4 -7 12 -4
19 3 8 -3 16 -12 19 -13 4 -13 4 2 3 12 -1 20 -10 21 -24z m-6305 -23 c-6 -11
-13 -20 -16 -20 -2 0 0 9 6 20 6 11 13 20 16 20 2 0 0 -9 -6 -20z m6340 -34
c0 -2 -8 -10 -17 -17 -16 -13 -17 -12 -4 4 13 16 21 21 21 13z m24 -21 c-4 -8
-8 -15 -10 -15 -2 0 -4 7 -4 15 0 8 4 15 10 15 5 0 7 -7 4 -15z m-6359 -23
c-3 -3 -11 0 -18 7 -9 10 -8 11 6 5 10 -3 15 -9 12 -12z m6360 -82 c3 -5 1
-10 -4 -10 -6 0 -11 5 -11 10 0 6 2 10 4 10 3 0 8 -4 11 -10z m-11 -58 c3 -5
-1 -9 -9 -9 -8 0 -12 4 -9 9 3 4 7 8 9 8 2 0 6 -4 9 -8z m-1 -127 c-3 -9 -8
-14 -10 -11 -3 3 -2 9 2 15 9 16 15 13 8 -4z m20 -151 c-8 -22 -19 -16 -19 11
0 18 3 22 12 14 7 -6 10 -17 7 -25z m-46 -221 c0 -7 -4 -13 -8 -13 -4 0 -9 6
-12 13 -3 8 0 14 7 14 7 0 13 -6 13 -14z m-24 -40 c-4 -10 -2 -14 4 -10 5 3
10 -1 10 -9 0 -13 -2 -13 -15 0 -8 8 -11 19 -8 25 11 17 16 13 9 -6z m-8 -43
c-3 -5 -12 -10 -18 -10 -7 0 -6 4 3 10 19 12 23 12 15 0z m-6008 -55 c0 -8 -5
-16 -11 -18 -6 -3 -11 6 -11 18 0 12 5 21 11 18 6 -2 11 -10 11 -18z m27 -71
c3 -8 2 -12 -4 -9 -6 3 -10 10 -10 16 0 14 7 11 14 -7z m162 -449 c-8 -8 -18
-15 -22 -15 -3 0 -1 7 6 15 7 8 17 15 22 15 5 0 3 -7 -6 -15z m5571 -72 c-4
-3 -2 -12 5 -20 8 -11 7 -12 -6 -7 -9 3 -16 9 -16 13 0 9 11 21 18 21 3 0 2
-3 -1 -7z m-5597 -63 c0 -5 -5 -10 -11 -10 -5 0 -7 5 -4 10 3 6 8 10 11 10 2
0 4 -4 4 -10z m0 -24 c0 -3 -4 -8 -10 -11 -5 -3 -10 -1 -10 4 0 6 5 11 10 11
6 0 10 -2 10 -4z m11 -19 c-10 -9 -11 -8 -5 6 3 10 9 15 12 12 3 -3 0 -11 -7
-18z m-18 -160 c3 -8 -1 -14 -8 -14 -7 0 -11 6 -8 14 3 7 6 13 8 13 2 0 5 -6
8 -13z m5364 -92 c0 -8 -4 -12 -9 -9 -5 3 -6 10 -3 15 9 13 12 11 12 -6z
m-5402 -103 c-3 -3 -11 0 -18 7 -9 10 -8 11 6 5 10 -3 15 -9 12 -12z m5380 -4
c5 4 5 1 1 -6 -6 -10 -11 -10 -22 -1 -8 6 -14 14 -14 16 0 3 6 0 13 -6 8 -6
18 -7 22 -3z m-5488 -223 c0 -8 -4 -12 -9 -9 -5 3 -6 10 -3 15 9 13 12 11 12
-6z m5431 -83 c2 -7 -1 -12 -8 -12 -6 0 -9 4 -6 9 4 5 1 12 -4 14 -6 3 -5 4 2
3 6 -1 14 -8 16 -14z m-25 -157 c-7 -21 -12 -19 -10 4 0 11 5 18 9 15 4 -3 5
-11 1 -19z m29 3 c-7 -7 -12 -8 -12 -2 0 14 12 26 19 19 2 -3 -1 -11 -7 -17z
m-8 -121 c-3 -8 -12 -18 -20 -21 -11 -4 -11 0 2 20 18 26 28 27 18 1z m-5664
-222 c-7 -8 -8 -15 -3 -15 5 0 9 -10 10 -22 2 -22 1 -22 -12 2 -12 23 -5 50
12 50 3 0 0 -7 -7 -15z m5661 -53 c-7 -13 -6 -23 1 -30 9 -9 9 -12 1 -12 -16
0 -22 22 -11 43 5 9 11 17 14 17 2 0 0 -8 -5 -18z m-5673 -17 c0 -29 -1 -29
-17 3 -9 18 -9 22 2 22 9 0 15 -10 15 -25z m5662 -70 c0 -8 -4 -15 -10 -15 -5
0 -7 7 -4 15 4 8 8 15 10 15 2 0 4 -7 4 -15z m-5700 -5 c0 -5 -5 -10 -11 -10
-5 0 -7 5 -4 10 3 6 8 10 11 10 2 0 4 -4 4 -10z m-10 -42 c-14 -11 -24 -25
-22 -29 1 -5 -3 -8 -10 -6 -7 1 -12 -3 -13 -10 0 -18 -12 -25 -12 -8 0 15 60
75 75 75 4 -1 -4 -10 -18 -22z m5728 -26 c-7 -10 -14 -19 -15 -21 -3 -4 2 28
6 47 1 2 6 0 11 -3 8 -5 7 -12 -2 -23z m2 -53 c0 -5 -4 -9 -8 -9 -5 0 -9 7 -9
15 0 8 4 12 9 9 4 -3 8 -9 8 -15z m-5826 -15 c5 -12 2 -15 -10 -10 -12 4 -15
2 -10 -9 3 -8 1 -15 -3 -15 -24 0 -9 44 15 50 1 0 5 -7 8 -16z m40 -2 c3 -5
-1 -9 -9 -9 -8 0 -12 4 -9 9 3 4 7 8 9 8 2 0 6 -4 9 -8z m-87 -104 c-3 -8 -6
-5 -6 6 -1 11 2 17 5 13 3 -3 4 -12 1 -19z m-13 -27 c-2 -3 -12 3 -22 13 -16
17 -16 18 5 5 12 -7 20 -15 17 -18z m0 -33 c-3 -5 -9 -6 -14 -3 -9 5 -25 -13
-25 -29 0 -5 -6 -11 -12 -13 -20 -7 -15 14 7 35 20 19 54 26 44 10z m5913 -25
c-4 -3 -2 -12 4 -19 7 -8 6 -14 -2 -20 -7 -4 -9 -3 -5 4 3 5 1 12 -6 14 -11 4
-3 28 9 28 4 0 3 -3 0 -7z m-5969 -87 c-1 -13 -8 -23 -15 -23 -9 0 -10 4 -2
14 9 9 8 17 -1 28 -11 13 -10 14 3 9 10 -3 16 -16 15 -28z m5967 6 c-3 -3 -11
0 -18 7 -9 10 -8 11 6 5 10 -3 15 -9 12 -12z m15 -22 c-12 -7 -11 -12 5 -32
12 -13 13 -17 4 -10 -9 6 -18 9 -21 7 -3 -3 -4 5 -3 17 3 29 3 28 18 28 8 0 7
-3 -3 -10z m40 -164 c0 -2 -7 -9 -15 -16 -13 -11 -14 -10 -9 4 5 14 24 23 24
12z m-5 -35 c-3 -5 -1 -12 5 -16 12 -7 4 -25 -11 -25 -5 0 -7 10 -5 23 6 29 5
27 12 27 3 0 3 -4 -1 -9z m25 -191 c0 -5 -2 -10 -4 -10 -3 0 -8 5 -11 10 -3 6
-1 10 4 10 6 0 11 -4 11 -10z m-6286 -129 c-4 -3 -9 0 -11 7 -3 6 -10 9 -15 6
-7 -4 -8 -2 -4 5 6 9 11 9 22 0 8 -6 12 -15 8 -18z"/>
<path d="M5076 7262 c-3 -5 1 -9 9 -9 8 0 12 4 9 9 -3 4 -7 8 -9 8 -2 0 -6 -4
-9 -8z"/>
<path d="M5110 7260 c0 -5 5 -10 10 -10 6 0 10 5 10 10 0 6 -4 10 -10 10 -5 0
-10 -4 -10 -10z"/>
<path d="M6025 7260 c-8 -13 5 -13 25 0 13 8 13 10 -2 10 -9 0 -20 -4 -23 -10z"/>
<path d="M6150 7229 c0 -5 5 -7 10 -4 6 3 10 8 10 11 0 2 -4 4 -10 4 -5 0 -10
-5 -10 -11z"/>
<path d="M6175 7220 c-3 -5 -1 -10 4 -10 6 0 11 5 11 10 0 6 -2 10 -4 10 -3 0
-8 -4 -11 -10z"/>
<path d="M130 7159 c0 -5 5 -7 10 -4 6 3 10 8 10 11 0 2 -4 4 -10 4 -5 0 -10
-5 -10 -11z"/>
<path d="M461 7145 c-1 -17 15 -36 35 -40 10 -2 19 -4 19 -5 0 -1 8 -3 18 -5
9 -2 17 1 17 6 0 5 -5 9 -11 9 -5 0 -7 6 -3 13 5 8 2 8 -9 -2 -14 -11 -17 -11
-17 0 0 11 -2 11 -10 -1 -9 -14 -14 -7 -11 13 1 5 -3 6 -8 3 -5 -4 -12 0 -14
6 -3 7 -6 9 -6 3z"/>
<path d="M4943 7100 c5 -16 -16 -42 -27 -34 -3 2 -4 1 -1 -3 3 -4 13 -8 21 -9
9 -1 13 0 10 3 -3 4 -2 11 4 17 5 7 5 17 -2 26 -9 13 -9 13 -5 0z"/>
<path d="M816 7057 c4 -10 15 -22 25 -27 25 -14 32 -12 17 4 -7 8 -15 12 -17
10 -2 -2 -10 4 -18 14 -12 16 -13 16 -7 -1z"/>
<path d="M636 7052 c-3 -6 -1 -14 5 -17 14 -9 20 -2 10 14 -6 8 -11 9 -15 3z"/>
<path d="M4870 7023 c0 -6 6 -16 14 -22 10 -8 16 -8 25 3 9 11 8 15 -3 19 -11
4 -13 1 -10 -11 5 -14 3 -13 -10 2 -9 11 -16 15 -16 9z"/>
<path d="M27 6998 c7 -8 10 -18 6 -21 -3 -4 -1 -7 5 -7 21 0 21 16 -1 30 -19
12 -21 11 -10 -2z"/>
<path d="M1005 6987 c-12 -9 -14 -16 -7 -21 6 -3 16 3 22 14 13 24 10 25 -15
7z"/>
<path d="M4805 6960 c-16 -7 -17 -9 -3 -9 9 -1 20 4 23 9 7 11 7 11 -20 0z"/>
<path d="M1110 6939 c0 -5 5 -7 10 -4 6 3 10 8 10 11 0 2 -4 4 -10 4 -5 0 -10
-5 -10 -11z"/>
<path d="M4815 6930 c6 -10 4 -12 -9 -7 -10 4 -15 3 -11 -3 3 -6 1 -11 -4 -11
-6 -1 -15 -3 -21 -4 -5 -1 -16 -3 -22 -4 -9 -1 -9 -4 1 -10 10 -6 25 -5 42 5
34 17 43 30 28 40 -8 5 -9 3 -4 -6z"/>
<path d="M4710 6861 c0 -5 7 -12 16 -15 14 -5 15 -4 4 9 -14 17 -20 19 -20 6z"/>
<path d="M33 6816 c3 -8 1 -16 -6 -19 -7 -2 -5 -6 4 -9 11 -4 15 1 15 18 0 13
-4 24 -9 24 -5 0 -7 -6 -4 -14z"/>
<path d="M1235 6791 c-11 -18 34 -25 51 -8 4 3 -6 4 -21 1 -17 -3 -24 -1 -20
6 3 5 4 10 1 10 -3 0 -7 -4 -11 -9z"/>
<path d="M6210 6781 c0 -7 -4 -10 -9 -7 -11 7 -9 -21 2 -29 4 -3 5 -2 2 2 -3
3 0 12 7 20 6 7 8 16 4 20 -3 3 -6 1 -6 -6z"/>
<path d="M35 6750 c8 -9 12 -19 9 -22 -3 -3 -1 -9 4 -12 9 -5 9 14 2 34 -1 3
-2 8 -2 11 1 3 -6 6 -14 6 -12 0 -12 -3 1 -17z"/>
<path d="M16 6737 c3 -10 9 -15 12 -12 3 3 0 11 -7 18 -10 9 -11 8 -5 -6z"/>
<path d="M1302 6738 c2 -6 12 -12 22 -14 14 -2 15 0 5 12 -14 17 -32 19 -27 2z"/>
<path d="M1350 6732 c0 -4 9 -13 20 -19 16 -11 18 -10 14 1 -6 15 -34 30 -34
18z"/>
<path d="M4550 6700 c-13 -8 -12 -10 3 -10 9 0 17 5 17 10 0 12 -1 12 -20 0z"/>
<path d="M6215 6680 c3 -5 8 -10 11 -10 2 0 4 5 4 10 0 6 -5 10 -11 10 -5 0
-7 -4 -4 -10z"/>
<path d="M6236 6662 c-3 -5 1 -9 9 -9 8 0 12 4 9 9 -3 4 -7 8 -9 8 -2 0 -6 -4
-9 -8z"/>
<path d="M1485 6651 c3 -5 0 -11 -7 -13 -7 -3 -5 -7 6 -11 9 -4 15 -3 11 2 -3
5 0 11 7 13 7 3 5 7 -6 11 -9 4 -15 3 -11 -2z"/>
<path d="M4450 6640 c0 -5 5 -10 11 -10 5 0 7 5 4 10 -3 6 -8 10 -11 10 -2 0
-4 -4 -4 -10z"/>
<path d="M1510 6619 c0 -5 5 -7 12 -3 8 5 9 1 4 -12 -5 -14 -4 -16 5 -7 6 6 8
16 5 22 -9 14 -26 14 -26 0z"/>
<path d="M6210 6622 c0 -12 22 -32 35 -32 5 0 2 5 -8 11 -9 6 -15 14 -12 20 4
5 1 9 -4 9 -6 0 -11 -4 -11 -8z"/>
<path d="M3950 6605 c0 -5 5 -17 10 -25 5 -8 10 -10 10 -5 0 6 -5 17 -10 25
-5 8 -10 11 -10 5z"/>
<path d="M3745 6580 c-3 -5 -1 -10 4 -10 6 0 11 5 11 10 0 6 -2 10 -4 10 -3 0
-8 -4 -11 -10z"/>
<path d="M3856 6582 c-3 -5 1 -9 9 -9 8 0 12 4 9 9 -3 4 -7 8 -9 8 -2 0 -6 -4
-9 -8z"/>
<path d="M1608 6573 c-23 -6 -23 -18 0 -20 10 -1 19 5 19 13 0 8 -1 13 -1 13
-1 -1 -9 -3 -18 -6z"/>
<path d="M6226 6572 c-2 -4 4 -13 14 -20 14 -8 21 -8 26 -1 4 6 0 15 -7 20
-18 11 -26 11 -33 1z"/>
<path d="M3674 6559 c-3 -6 0 -15 7 -20 8 -4 16 -4 20 3 4 7 8 6 12 -3 3 -8 4
-4 4 8 -1 15 -5 19 -11 13 -13 -13 -29 -13 -21 0 3 6 4 10 1 10 -3 0 -8 -5
-12 -11z"/>
<path d="M1796 6538 c3 -5 10 -6 15 -3 13 9 11 12 -6 12 -8 0 -12 -4 -9 -9z"/>
<path d="M3266 6538 c3 -4 9 -8 15 -8 5 0 9 4 9 8 0 5 -7 9 -15 9 -8 0 -12 -4
-9 -9z"/>
<path d="M13 6517 c-3 -6 -1 -7 5 -3 6 3 14 1 19 -6 11 -19 13 -38 2 -38 -5 0
-9 -5 -9 -11 0 -8 4 -8 14 0 12 10 14 29 6 51 -1 3 -2 8 -2 11 1 10 -29 6 -35
-4z"/>
<path d="M3165 6500 c-3 -6 1 -7 9 -4 18 7 21 14 7 14 -6 0 -13 -4 -16 -10z"/>
<path d="M2986 6422 c-3 -5 1 -9 9 -9 8 0 12 4 9 9 -3 4 -7 8 -9 8 -2 0 -6 -4
-9 -8z"/>
<path d="M2935 6400 c3 -5 8 -10 11 -10 2 0 4 5 4 10 0 6 -5 10 -11 10 -5 0
-7 -4 -4 -10z"/>
<path d="M2833 6375 c0 -7 6 -11 14 -8 7 3 13 6 13 8 0 2 -6 5 -13 8 -8 3 -14
-1 -14 -8z"/>
<path d="M6309 6378 c-7 -29 -5 -36 7 -31 16 6 18 19 4 28 -5 3 -10 5 -11 3z"/>
<path d="M35 6361 c3 -6 -3 -14 -12 -20 -10 -6 -13 -11 -6 -11 6 0 15 5 18 10
4 6 12 7 18 3 7 -4 6 0 -2 10 -14 18 -26 23 -16 8z"/>
<path d="M6311 6326 c-8 -10 -9 -16 -1 -21 5 -3 10 -5 11 -3 4 18 7 38 4 38
-1 0 -8 -6 -14 -14z"/>
<path d="M2724 6318 c6 -20 -10 -25 -17 -5 -3 6 -6 2 -6 -11 -1 -21 1 -22 22
-10 12 7 25 11 29 10 4 -1 4 6 1 15 -5 12 -8 13 -11 4 -4 -11 -6 -11 -14 0 -8
11 -9 10 -4 -3z"/>
<path d="M2665 6300 c-3 -6 1 -7 9 -4 18 7 21 14 7 14 -6 0 -13 -4 -16 -10z"/>
<path d="M2356 6282 c-3 -5 1 -9 9 -9 8 0 12 4 9 9 -3 4 -7 8 -9 8 -2 0 -6 -4
-9 -8z"/>
<path d="M2318 6273 c7 -3 16 -2 19 1 4 3 -2 6 -13 5 -11 0 -14 -3 -6 -6z"/>
<path d="M6331 6273 c-1 -17 16 -25 25 -12 4 7 3 9 -4 5 -5 -3 -13 0 -15 6 -4
9 -6 10 -6 1z"/>
<path d="M2260 6260 c0 -16 17 -20 28 -7 8 10 6 13 -9 14 -10 1 -19 -2 -19 -7z"/>
<path d="M30 6219 c0 -5 5 -7 10 -4 6 3 10 8 10 11 0 2 -4 4 -10 4 -5 0 -10
-5 -10 -11z"/>
<path d="M6390 6120 c0 -5 0 -13 -1 -17 0 -4 9 -10 20 -14 15 -6 19 -4 15 6
-3 8 -13 11 -22 7 -15 -5 -15 -4 -3 11 9 11 10 17 2 17 -6 0 -11 -4 -11 -10z"/>
<path d="M41 6051 c-9 -6 -10 -11 -2 -15 6 -4 11 -12 11 -18 0 -6 -7 -5 -17 3
-16 12 -17 12 -7 -1 6 -8 10 -32 9 -52 -2 -21 1 -38 5 -38 5 0 7 9 5 20 -2 11
-1 20 4 20 4 0 7 20 7 45 -1 25 -1 45 -1 45 0 0 -6 -4 -14 -9z"/>
<path d="M6455 5980 c3 -5 8 -10 11 -10 2 0 4 5 4 10 0 6 -5 10 -11 10 -5 0
-7 -4 -4 -10z"/>
<path d="M44 5816 c-19 -14 -19 -14 1 -13 15 2 20 -4 19 -20 -1 -13 3 -20 7
-17 5 3 9 1 9 -5 0 -5 -3 -11 -7 -14 -5 -2 -3 -2 4 -1 13 3 26 -23 18 -36 -3
-5 0 -12 6 -16 8 -4 9 -3 5 4 -4 7 -2 12 3 12 6 0 11 -4 11 -10 0 -5 5 -10 11
-10 6 0 -1 14 -15 31 -14 17 -27 35 -27 40 -2 12 -6 28 -9 34 -1 3 -3 9 -4 14
-2 18 -13 21 -32 7z"/>
<path d="M6480 5820 c8 -5 20 -10 25 -10 6 0 3 5 -5 10 -8 5 -19 10 -25 10 -5
0 -3 -5 5 -10z"/>
<path d="M6550 5661 c0 -6 4 -13 10 -16 6 -3 7 1 4 9 -7 18 -14 21 -14 7z"/>
<path d="M6680 5380 c12 -23 30 -35 30 -21 0 6 -5 11 -11 11 -5 0 -8 4 -5 9 3
5 -1 12 -9 15 -13 4 -13 2 -5 -14z"/>
<path d="M186 5378 c3 -4 9 -8 15 -8 5 0 9 4 9 8 0 5 -7 9 -15 9 -8 0 -12 -4
-9 -9z"/>
<path d="M224 5284 c-14 -12 -15 -14 -3 -11 9 3 21 1 27 -5 7 -7 10 -6 8 5 -3
26 -11 28 -32 11z"/>
<path d="M6817 5236 c-3 -8 1 -20 8 -26 10 -8 13 -25 10 -49 -3 -25 -2 -32 5
-21 8 12 10 12 10 1 0 -8 3 -12 6 -9 3 4 1 15 -4 25 -7 12 -7 25 -1 36 7 12 7
17 -2 15 -6 -2 -13 5 -14 15 -5 26 -11 31 -18 13z"/>
<path d="M6869 5023 c-13 -16 -12 -17 4 -4 16 13 21 21 13 21 -2 0 -10 -8 -17
-17z"/>
<path d="M6916 4901 c-3 -5 1 -11 9 -14 9 -4 12 -1 8 9 -6 16 -10 17 -17 5z"/>
<path d="M418 4813 c-3 -4 1 -19 9 -33 l13 -25 -3 27 c-3 30 -12 44 -19 31z"/>
<path d="M6965 4800 c-3 -5 -1 -10 4 -10 6 0 11 5 11 10 0 6 -2 10 -4 10 -3 0
-8 -4 -11 -10z"/>
<path d="M470 4681 c0 -6 4 -13 10 -16 6 -3 7 1 4 9 -7 18 -14 21 -14 7z"/>
<path d="M7040 4655 c7 -8 9 -15 5 -15 -4 0 -2 -7 5 -15 7 -8 9 -15 5 -15 -4
0 -3 -6 2 -12 6 -7 9 -21 8 -30 -2 -10 0 -18 3 -18 12 1 42 27 42 36 0 4 -5 3
-12 -4 -18 -18 -32 -14 -17 5 8 10 9 14 2 10 -6 -4 -14 -3 -18 3 -6 9 8 14 28
11 5 -1 6 3 2 8 -3 6 -13 7 -23 4 -15 -6 -16 -5 -2 12 9 11 10 16 2 11 -7 -4
-15 -1 -18 8 -3 9 -11 16 -16 16 -6 0 -5 -6 2 -15z"/>
<path d="M7090 4540 c0 -5 5 -10 10 -10 6 0 10 5 10 10 0 6 -4 10 -10 10 -5 0
-10 -4 -10 -10z"/>
<path d="M7094 4509 c-8 -14 14 -19 25 -6 8 10 7 14 -5 14 -8 0 -17 -4 -20 -8z"/>
<path d="M586 4478 c3 -4 11 -5 19 -1 21 7 19 12 -4 10 -11 0 -18 -5 -15 -9z"/>
<path d="M7145 4461 c-3 -5 -2 -12 3 -15 5 -3 9 1 9 9 0 17 -3 19 -12 6z"/>
<path d="M7170 4451 c0 -6 4 -13 10 -16 6 -3 7 1 4 9 -7 18 -14 21 -14 7z"/>
<path d="M645 4430 c3 -5 2 -10 -3 -10 -6 0 -13 -8 -16 -17 -6 -15 -5 -15 13
1 18 16 20 36 5 36 -3 0 -2 -4 1 -10z"/>
<path d="M636 4357 c3 -10 9 -15 12 -12 3 3 0 11 -7 18 -10 9 -11 8 -5 -6z"/>
<path d="M7170 4275 c-19 -23 1 -39 26 -20 16 13 16 14 1 9 -13 -5 -16 -2 -11
10 8 20 0 21 -16 1z"/>
<path d="M7177 4222 c-16 -18 -16 -19 3 -17 11 1 23 5 27 10 5 4 2 5 -4 1 -7
-4 -13 -3 -13 3 0 5 6 12 13 14 7 3 7 6 1 6 -6 1 -18 -7 -27 -17z"/>
<path d="M7175 4149 c-3 -4 2 -6 10 -5 21 3 28 13 10 13 -9 0 -18 -4 -20 -8z"/>
<path d="M7195 3979 c-4 -6 -5 -12 -2 -15 2 -3 7 2 10 11 7 17 1 20 -8 4z"/>
<path d="M756 3961 c-3 -5 2 -15 12 -22 15 -12 16 -12 5 2 -7 9 -10 19 -6 22
3 4 4 7 0 7 -3 0 -8 -4 -11 -9z"/>
<path d="M7260 3779 c0 -5 5 -7 10 -4 6 3 10 8 10 11 0 2 -4 4 -10 4 -5 0 -10
-5 -10 -11z"/>
<path d="M882 3663 c11 -3 15 -11 12 -21 -5 -14 -4 -14 4 -2 13 18 6 30 -16
29 -16 -1 -16 -2 0 -6z"/>
<path d="M7271 3624 c0 -11 3 -14 6 -6 3 7 2 16 -1 19 -3 4 -6 -2 -5 -13z"/>
<path d="M916 3597 c3 -10 9 -15 12 -12 3 3 0 11 -7 18 -10 9 -11 8 -5 -6z"/>
<path d="M945 3580 c-8 -13 15 -24 27 -12 6 6 4 11 -6 15 -8 3 -18 2 -21 -3z"/>
<path d="M950 3546 c0 -2 7 -7 16 -10 8 -3 12 -2 9 4 -6 10 -25 14 -25 6z"/>
<path d="M7275 3521 c-3 -5 -2 -12 3 -15 5 -3 9 1 9 9 0 17 -3 19 -12 6z"/>
<path d="M7254 3445 c1 -8 6 -18 11 -22 4 -4 5 -3 2 4 -4 6 -2 13 5 15 8 3 6
6 -4 10 -10 4 -15 2 -14 -7z"/>
<path d="M1026 3338 c3 -5 10 -6 15 -3 13 9 11 12 -6 12 -8 0 -12 -4 -9 -9z"/>
<path d="M1038 3313 c6 -2 9 -10 6 -15 -4 -7 -2 -8 5 -4 13 9 5 26 -12 25 -9
0 -8 -2 1 -6z"/>
<path d="M7233 3233 c-15 -5 -17 -23 -4 -23 5 0 11 7 15 15 3 8 4 15 3 14 -1
0 -8 -3 -14 -6z"/>
<path d="M1039 3213 c-13 -16 -12 -17 4 -4 16 13 21 21 13 21 -2 0 -10 -8 -17
-17z"/>
<path d="M7235 3180 c-3 -5 -1 -10 4 -10 6 0 11 5 11 10 0 6 -2 10 -4 10 -3 0
-8 -4 -11 -10z"/>
<path d="M7185 3030 c-3 -5 -3 -10 1 -10 3 0 -4 -9 -17 -20 -13 -10 -20 -19
-15 -20 5 0 3 -6 -3 -13 -8 -10 -7 -19 5 -33 15 -18 15 -18 5 2 -8 16 -7 25 3
33 7 6 16 8 19 4 4 -3 7 -1 7 5 0 7 -6 12 -12 12 -9 0 -9 3 1 9 8 5 16 17 17
25 3 18 -2 21 -11 6z"/>
<path d="M7210 3019 c0 -5 5 -7 10 -4 6 3 10 8 10 11 0 2 -4 4 -10 4 -5 0 -10
-5 -10 -11z"/>
<path d="M1193 2913 c9 -2 17 -9 17 -14 0 -5 5 -9 11 -9 8 0 8 5 -1 15 -7 8
-20 14 -29 14 -13 -1 -13 -2 2 -6z"/>
<path d="M7135 2900 c2 -29 10 -33 13 -5 1 14 -2 25 -6 25 -5 0 -8 -9 -7 -20z"/>
<path d="M1195 2860 c3 -5 8 -10 11 -10 2 0 4 5 4 10 0 6 -5 10 -11 10 -5 0
-7 -4 -4 -10z"/>
<path d="M7132 2847 c-7 -8 -6 -18 4 -32 15 -19 15 -19 10 7 -3 19 0 28 12 31
15 4 15 5 1 6 -9 0 -21 -5 -27 -12z"/>
<path d="M1270 2780 c0 -5 5 -10 11 -10 5 0 8 -4 5 -8 -3 -5 1 -9 8 -9 11 0
12 4 3 19 -13 20 -27 24 -27 8z"/>
<path d="M7155 2741 c-3 -5 -2 -12 3 -15 5 -3 9 1 9 9 0 17 -3 19 -12 6z"/>
<path d="M1296 2701 c-4 -5 3 -7 14 -4 23 6 26 13 6 13 -8 0 -17 -4 -20 -9z"/>
<path d="M7029 2605 c0 0 -2 -11 -4 -25 -2 -14 -1 -19 1 -12 3 6 10 10 15 6 5
-3 8 0 7 8 -2 7 3 12 10 11 6 -2 12 1 12 6 0 7 -30 12 -41 6z"/>
<path d="M6972 2537 c-9 -10 -6 -13 13 -13 19 0 22 3 13 13 -6 7 -12 13 -13
13 -1 0 -7 -6 -13 -13z"/>
<path d="M6945 2500 c-3 -5 -1 -10 4 -10 6 0 11 5 11 10 0 6 -2 10 -4 10 -3 0
-8 -4 -11 -10z"/>
<path d="M6970 2506 c0 -2 7 -7 16 -10 8 -3 12 -2 9 4 -6 10 -25 14 -25 6z"/>
<path d="M6927 2474 c-8 -8 1 -24 12 -24 4 0 8 7 8 15 0 16 -9 20 -20 9z"/>
<path d="M6920 2370 c-9 -6 -10 -10 -3 -10 6 0 15 5 18 10 8 12 4 12 -15 0z"/>
<path d="M6905 2340 c-4 -6 -10 -8 -14 -6 -4 3 -8 -1 -8 -9 0 -19 -1 -19 27 5
13 11 18 20 12 20 -6 0 -14 -5 -17 -10z"/>
<path d="M6826 2247 c3 -10 9 -15 12 -12 3 3 0 11 -7 18 -10 9 -11 8 -5 -6z"/>
<path d="M6790 2199 c0 -5 5 -7 10 -4 6 3 10 8 10 11 0 2 -4 4 -10 4 -5 0 -10
-5 -10 -11z"/>
<path d="M6735 2059 c-4 -6 -5 -12 -2 -15 2 -3 7 2 10 11 7 17 1 20 -8 4z"/>
<path d="M6680 1939 c0 -5 5 -7 10 -4 6 3 10 8 10 11 0 2 -4 4 -10 4 -5 0 -10
-5 -10 -11z"/>
<path d="M6632 1917 c-24 -14 -20 -27 7 -27 14 0 14 2 1 10 -13 9 -13 10 0 11
8 1 18 1 23 0 4 0 7 4 7 9 0 13 -10 12 -38 -3z"/>
<path d="M1216 1905 c-3 -8 -1 -15 4 -15 6 0 10 7 10 15 0 8 -2 15 -4 15 -2 0
-6 -7 -10 -15z"/>
<path d="M1173 1800 c-1 -9 4 -17 11 -17 6 0 12 8 12 17 0 9 -5 17 -11 17 -6
0 -12 -8 -12 -17z"/>
<path d="M1115 1740 c-3 -5 -1 -10 4 -10 6 0 11 5 11 10 0 6 -2 10 -4 10 -3 0
-8 -4 -11 -10z"/>
<path d="M6630 1740 c0 -5 5 -10 11 -10 5 0 7 5 4 10 -3 6 -8 10 -11 10 -2 0
-4 -4 -4 -10z"/>
<path d="M6626 1702 c-3 -5 1 -9 9 -9 8 0 12 4 9 9 -3 4 -7 8 -9 8 -2 0 -6 -4
-9 -8z"/>
<path d="M1078 1613 c3 -18 7 -21 13 -11 12 18 11 25 -4 31 -10 4 -13 -2 -9
-20z"/>
<path d="M1053 1588 c-2 -18 0 -20 7 -8 12 18 13 30 2 30 -4 0 -9 -10 -9 -22z"/>
<path d="M1010 1549 c0 -5 -6 -7 -12 -3 -9 5 -9 3 1 -9 15 -19 33 -13 24 8 -6
17 -13 20 -13 4z"/>
<path d="M980 1489 c0 -5 5 -7 10 -4 6 3 10 8 10 11 0 2 -4 4 -10 4 -5 0 -10
-5 -10 -11z"/>
<path d="M943 1474 c3 -6 -2 -20 -13 -32 -15 -16 -16 -21 -5 -26 27 -10 44 40
20 61 -4 4 -5 3 -2 -3z"/>
<path d="M6590 1463 c0 -1 10 -7 21 -14 13 -6 19 -7 15 -1 -3 6 0 12 6 15 7 2
1 4 -14 3 -16 0 -28 -2 -28 -3z"/>
<path d="M905 1340 c-3 -6 1 -7 9 -4 18 7 21 14 7 14 -6 0 -13 -4 -16 -10z"/>
<path d="M915 1320 c-4 -6 -11 -7 -17 -4 -7 4 -8 2 -4 -4 5 -9 13 -9 27 -2 10
6 19 13 19 15 0 9 -19 5 -25 -5z"/>
<path d="M900 1275 c7 -8 17 -15 22 -15 5 0 3 7 -6 15 -8 8 -18 15 -22 15 -3
0 -1 -7 6 -15z"/>
<path d="M897 1243 c-3 -5 0 -17 4 -28 8 -18 9 -18 5 3 -3 17 -1 22 10 18 8
-3 14 -1 14 4 0 12 -27 13 -33 3z"/>
<path d="M870 1105 c0 -5 5 -17 10 -25 5 -8 10 -10 10 -5 0 6 -5 17 -10 25 -5
8 -10 11 -10 5z"/>
<path d="M6630 1026 c0 -2 7 -7 16 -10 8 -3 12 -2 9 4 -6 10 -25 14 -25 6z"/>
<path d="M835 1000 c-3 -5 -1 -10 4 -10 6 0 11 5 11 10 0 6 -2 10 -4 10 -3 0
-8 -4 -11 -10z"/>
<path d="M786 962 c-3 -5 1 -9 9 -9 8 0 12 4 9 9 -3 4 -7 8 -9 8 -2 0 -6 -4
-9 -8z"/>
<path d="M697 843 c-4 -3 -1 -13 6 -21 10 -13 9 -15 -8 -8 -16 6 -18 5 -7 -5
10 -11 16 -10 30 5 13 14 14 17 2 14 -8 -2 -14 3 -12 10 2 13 -1 15 -11 5z"/>
<path d="M630 721 c0 -6 4 -13 10 -16 6 -3 7 1 4 9 -7 18 -14 21 -14 7z"/>
<path d="M6675 580 c-3 -5 -1 -10 4 -10 6 0 11 5 11 10 0 6 -2 10 -4 10 -3 0
-8 -4 -11 -10z"/>
<path d="M595 452 c3 -3 0 -10 -5 -17 -7 -8 -5 -12 5 -12 8 0 13 3 10 5 -3 3
0 10 5 17 7 8 5 12 -5 12 -8 0 -13 -3 -10 -5z"/>
<path d="M564 384 c4 -13 -1 -27 -13 -41 -17 -18 -18 -22 -5 -27 8 -3 12 -11
8 -17 -3 -6 -9 -7 -13 -3 -6 9 -41 15 -41 8 0 -3 10 -8 23 -13 27 -11 52 5 37
24 -8 9 -6 14 4 18 15 6 16 51 1 65 -4 4 -5 -2 -1 -14z"/>
<path d="M6736 347 c3 -10 9 -15 12 -12 3 3 0 11 -7 18 -10 9 -11 8 -5 -6z"/>
<path d="M505 230 c6 -10 4 -12 -8 -7 -9 3 -18 3 -21 -1 -3 -4 4 -8 14 -9 23
-2 35 13 19 23 -8 5 -9 3 -4 -6z"/>
<path d="M6745 110 c-3 -6 1 -7 9 -4 18 7 21 14 7 14 -6 0 -13 -4 -16 -10z"/>
<path d="M367 65 c3 -8 9 -12 14 -9 12 7 11 11 -5 17 -10 4 -13 1 -9 -8z"/>
</g>
</svg>
