<svg xmlns="http://www.w3.org/2000/svg" xmlns:xlink="http://www.w3.org/1999/xlink" width="75" height="65" version="1.1" viewBox="0 0 75 65"><title>Restart button</title><desc>Created with Sketch.</desc><g id="Page-1" fill="none" fill-rule="evenodd" stroke="none" stroke-width="1"><g id="Paused" transform="translate(-10.000000, -565.000000)"><g id="Restart-button" transform="translate(10.000000, 560.000000)"><polygon id="Score-hex-4" fill="#F1C40F" points="37.5 0 69.976 18.75 69.976 56.25 37.5 75 5.024 56.25 5.024 18.75" transform="translate(37.500000, 37.500000) rotate(-90.000000) translate(-37.500000, -37.500000)"/><path id="Shape" fill="#FFF" d="M47.8849281,28.1125 C45.3545966,25.575 41.8611632,24 37.9912445,24 C30.2514071,24 24,30.265 24,38 C24,45.735 30.2514071,52 37.9912445,52 C44.5140713,52 49.9774859,47.5375 51.5272045,41.5 L47.8849281,41.5 C46.4402752,45.5775 42.5703565,48.5 37.9912445,48.5 C32.1863665,48.5 27.4846779,43.80125 27.4846779,38 C27.4846779,32.19875 32.1863665,27.5 37.9912445,27.5 C40.8893058,27.5 43.4896811,28.7075 45.3896185,30.60625 L39.742339,36.25 L52,36.25 L52,24 L47.8849281,28.1125 L47.8849281,28.1125 Z"/></g></g></g></svg>