<svg><metadata>Created by FontForge 20110222 at Mon Mar 7 13:15:42 2011 By www-data Copyright soxhead2000 2010</metadata><defs><font id="Small-5x3" horiz-adv-x="512"><font-face x-height="512" ascent="819" bbox="0 -128 640 768" cap-height="640" descent="-205" font-family="Small 5x3" font-stretch="normal" font-variant="small-caps" font-weight="400" panose-1="0 0 4 0 0 0 0 0 0 0" underline-position="127" underline-thickness="51" unicode-range="U+0020-2122" units-per-em="1024"/><glyph glyph-name="space"/><glyph d="M0 0v128h128v-128h-128zM0 256v384h128v-384h-128z" glyph-name="exclam" horiz-adv-x="256" unicode="!"/><glyph d="M0 384v256h128v-256h-128zM256 384v256h128v-256h-128z" glyph-name="quotedbl" unicode="&quot;"/><glyph d="M256 256v128h-128v-128h128zM0 0v640h128v-128h128v128h128v-640h-128v128h-128v-128h-128z" glyph-name="numbersign" unicode="#"/><glyph d="M0 0v128h128v128h-128v384h384v-128h-128v-128h128v-384h-384z" glyph-name="dollar" unicode="$"/><glyph d="M256 0v128h128v-128h-128zM0 128v128h128v-128h-128zM128 256v128h128v-128h-128zM256 384v128h128v-128h-128zM0 512v128h128v-128h-128z" glyph-name="percent" unicode="%"/><glyph d="M128 0v128h-128v384h128v128h128v-128h128v-128h-256v-128h256v-128h-128v-128h-128z" glyph-name="ampersand" unicode="&amp;"/><glyph d="M0 384v256h128v-256h-128z" glyph-name="quotesingle" horiz-adv-x="256" unicode="'"/><glyph d="M128 0v128h128v-128h-128zM0 128v384h128v-384h-128zM128 512v128h128v-128h-128z" glyph-name="parenleft" horiz-adv-x="384" unicode="("/><glyph d="M0 0v128h128v-128h-128zM128 128v384h128v-384h-128zM0 512v128h128v-128h-128z" glyph-name="parenright" horiz-adv-x="384" unicode=")"/><glyph d="M128 128v128h128v-128h-128zM0 256v128h128v-128h-128zM256 256v128h128v-128h-128zM128 384v128h128v-128h-128z" glyph-name="asterisk" unicode="*"/><glyph d="M128 128v128h-128v128h128v128h128v-128h128v-128h-128v-128h-128z" glyph-name="plus" unicode="+"/><glyph d="M0 0v128h128v128h128v-256h-256z" glyph-name="comma" horiz-adv-x="384" unicode=","/><glyph d="M0 256v128h384v-128h-384z" glyph-name="hyphen" unicode="-"/><glyph d="M0 0v128h128v-128h-128z" glyph-name="period" horiz-adv-x="256" unicode="."/><glyph d="M0 128v128h128v-128h-128zM128 256v128h128v-128h-128zM256 384v128h128v-128h-128z" glyph-name="slash" unicode="/"/><glyph d="M256 128v384h-128v-384h128zM0 0v640h384v-640h-384z" glyph-name="zero" unicode="0"/><glyph d="M0 0v128h128v384h-128v128h256v-512h128v-128h-384z" glyph-name="one" unicode="1"/><glyph d="M0 0v384h256v128h-256v128h384v-384h-256v-128h256v-128h-384z" glyph-name="two" unicode="2"/><glyph d="M0 0v128h256v128h-256v128h256v128h-256v128h384v-640h-384z" glyph-name="three" unicode="3"/><glyph d="M256 0v256h-256v384h128v-256h128v256h128v-640h-128z" glyph-name="four" unicode="4"/><glyph d="M0 0v128h256v128h-256v384h384v-128h-256v-128h256v-384h-384z" glyph-name="five" unicode="5"/><glyph d="M256 128v128h-128v-128h128zM0 0v640h384v-128h-256v-128h256v-384h-384z" glyph-name="six" unicode="6"/><glyph d="M256 0v512h-256v128h384v-640h-128z" glyph-name="seven" unicode="7"/><glyph d="M256 128v128h-128v-128h128zM256 384v128h-128v-128h128zM0 0v640h384v-640h-384z" glyph-name="eight" unicode="8"/><glyph d="M256 384v128h-128v-128h128zM0 0v128h256v128h-256v384h384v-640h-384z" glyph-name="nine" unicode="9"/><glyph d="M0 128v128h128v-128h-128zM0 384v128h128v-128h-128z" glyph-name="colon" horiz-adv-x="256" unicode=":"/><glyph d="M0 0v128h128v128h128v-256h-256zM128 384v128h128v-128h-128z" glyph-name="semicolon" horiz-adv-x="384" unicode=";"/><glyph d="M256 0v128h128v-128h-128zM128 128v128h128v-128h-128zM0 256v128h128v-128h-128zM128 384v128h128v-128h-128zM256 512v128h128v-128h-128z" glyph-name="less" unicode="&lt;"/><glyph d="M0 128v128h384v-128h-384zM0 384v128h384v-128h-384z" glyph-name="equal" unicode="="/><glyph d="M0 0v128h128v-128h-128zM128 128v128h128v-128h-128zM256 256v128h128v-128h-128zM128 384v128h128v-128h-128zM0 512v128h128v-128h-128z" glyph-name="greater" unicode="&gt;"/><glyph d="M128 0v128h128v-128h-128zM128 256v128h128v128h-256v128h384v-384h-256z" glyph-name="question" unicode="?"/><glyph d="M0 0v640h384v-384h-128v256h-128v-384h256v-128h-384z" glyph-name="at" unicode="@"/><glyph d="M256 384v128h-128v-128h128zM0 0v640h384v-640h-128v256h-128v-256h-128z" glyph-name="A" unicode="A"/><glyph d="M0 0v640h384v-256h-128v128h-128v-128h128v-128h-128v-128h128v128h128v-256h-384z" glyph-name="B" unicode="B"/><glyph d="M0 0v640h384v-128h-256v-384h256v-128h-384z" glyph-name="C" unicode="C"/><glyph d="M256 128v384h128v-384h-128zM0 0v640h256v-128h-128v-384h128v-128h-256z" glyph-name="D" unicode="D"/><glyph d="M0 0v640h384v-128h-256v-128h256v-128h-256v-128h256v-128h-384z" glyph-name="E" unicode="E"/><glyph d="M0 0v640h384v-128h-256v-128h256v-128h-256v-256h-128z" glyph-name="F" unicode="F"/><glyph d="M0 0v640h384v-128h-256v-384h128v256h128v-384h-384z" glyph-name="G" unicode="G"/><glyph d="M0 0v640h128v-256h128v256h128v-640h-128v256h-128v-256h-128z" glyph-name="H" unicode="H"/><glyph d="M0 0v128h128v384h-128v128h384v-128h-128v-384h128v-128h-384z" glyph-name="I" unicode="I"/><glyph d="M0 0v256h128v-128h128v512h128v-640h-384z" glyph-name="J" unicode="J"/><glyph d="M256 0v256h128v-256h-128zM0 0v640h128v-256h128v-128h-128v-256h-128zM256 384v256h128v-256h-128z" glyph-name="K" unicode="K"/><glyph d="M0 0v640h128v-512h256v-128h-384z" glyph-name="L" unicode="L"/><glyph d="M0 0v640h640v-640h-128v512h-128v-512h-128v512h-128v-512h-128z" glyph-name="M" horiz-adv-x="768" unicode="M"/><glyph d="M0 0v640h384v-640h-128v512h-128v-512h-128z" glyph-name="N" unicode="N"/><glyph d="M256 128v384h-128v-384h128zM0 0v640h384v-640h-384z" glyph-name="O" unicode="O"/><glyph d="M256 384v128h-128v-128h128zM0 0v640h384v-384h-256v-256h-128z" glyph-name="P" unicode="P"/><glyph d="M256 128v384h-128v-384h128zM128 -128v128h-128v640h384v-640h-128v-128h-128z" glyph-name="Q" unicode="Q"/><glyph d="M256 0v256h128v-256h-128zM0 0v640h384v-256h-128v128h-128v-128h128v-128h-128v-256h-128z" glyph-name="R" unicode="R"/><glyph d="M0 0v128h256v128h-256v384h384v-128h-256v-128h256v-384h-384z" glyph-name="S" unicode="S"/><glyph d="M128 0v512h-128v128h384v-128h-128v-512h-128z" glyph-name="T" unicode="T"/><glyph d="M0 0v640h128v-512h128v512h128v-640h-384z" glyph-name="U" unicode="U"/><glyph d="M128 0v128h128v-128h-128zM0 128v512h128v-512h-128zM256 128v512h128v-512h-128z" glyph-name="V" unicode="V"/><glyph d="M0 0v640h128v-512h128v512h128v-512h128v512h128v-640h-640z" glyph-name="W" horiz-adv-x="768" unicode="W"/><glyph d="M0 0v256h128v-256h-128zM256 0v256h128v-256h-128zM128 256v128h128v-128h-128zM0 384v256h128v-256h-128zM256 384v256h128v-256h-128z" glyph-name="X" unicode="X"/><glyph d="M128 0v256h-128v384h128v-256h128v256h128v-384h-128v-256h-128z" glyph-name="Y" unicode="Y"/><glyph d="M0 0v256h128v-128h256v-128h-384zM128 256v128h128v-128h-128zM256 384v128h-256v128h384v-256h-128z" glyph-name="Z" unicode="Z"/><glyph d="M0 0v640h256v-128h-128v-384h128v-128h-256z" glyph-name="bracketleft" horiz-adv-x="384" unicode="["/><glyph d="M256 128v128h128v-128h-128zM128 256v128h128v-128h-128zM0 384v128h128v-128h-128z" glyph-name="backslash" unicode="\"/><glyph d="M0 0v128h128v384h-128v128h256v-640h-256z" glyph-name="bracketright" horiz-adv-x="384" unicode="]"/><glyph d="M0 384v128h128v-128h-128zM256 384v128h128v-128h-128zM128 512v128h128v-128h-128z" glyph-name="asciicircum" unicode="^"/><glyph d="M0 0v128h384v-128h-384z" glyph-name="underscore" unicode="_"/><glyph d="M128 384v128h128v-128h-128zM0 512v128h128v-128h-128z" glyph-name="grave" horiz-adv-x="384" unicode="`"/><glyph d="M0 128v256h128v-256h-128zM128 0v128h128v256h-128v128h256v-512h-256z" glyph-name="a" unicode="a"/><glyph d="M256 128v256h128v-256h-128zM0 0v640h128v-128h128v-128h-128v-256h128v-128h-256z" glyph-name="b" unicode="b"/><glyph d="M0 0v512h384v-128h-256v-256h256v-128h-384z" glyph-name="c" unicode="c"/><glyph d="M0 128v256h128v-256h-128zM128 0v128h128v256h-128v128h128v128h128v-640h-256z" glyph-name="d" unicode="d"/><glyph d="M128 0v128h-128v256h128v-128h128v-128h128v-128h-256zM256 256v128h128v-128h-128zM128 384v128h128v-128h-128z" glyph-name="e" unicode="e"/><glyph d="M128 0v256h-128v128h128v256h256v-128h-128v-128h128v-128h-128v-256h-128z" glyph-name="f" unicode="f"/><glyph d="M0 -128v128h256v-128h-256zM256 256v128h-128v-128h128zM256 0v128h-256v384h384v-512h-128z" glyph-name="g" unicode="g"/><glyph d="M256 0v384h128v-384h-128zM0 0v640h128v-128h128v-128h-128v-384h-128z" glyph-name="h" unicode="h"/><glyph d="M0 0v384h128v-384h-128zM0 512v128h128v-128h-128z" glyph-name="i" horiz-adv-x="256" unicode="i"/><glyph d="M0 -128v128h128v-128h-128zM128 0v384h128v-384h-128zM128 512v128h128v-128h-128z" glyph-name="j" horiz-adv-x="384" unicode="j"/><glyph d="M256 0v256h128v-256h-128zM256 384v128h128v-128h-128zM0 0v640h128v-256h128v-128h-128v-256h-128z" glyph-name="k" unicode="k"/><glyph d="M128 0v512h-128v128h256v-640h-128z" glyph-name="l" horiz-adv-x="384" unicode="l"/><glyph d="M0 0v512h640v-512h-128v384h-128v-384h-128v384h-128v-384h-128z" glyph-name="m" horiz-adv-x="768" unicode="m"/><glyph d="M0 0v512h384v-512h-128v384h-128v-384h-128z" glyph-name="n" unicode="n"/><glyph d="M256 128v256h-128v-256h128zM0 0v512h384v-512h-384z" glyph-name="o" unicode="o"/><glyph d="M256 128v256h128v-256h-128zM0 -128v640h256v-128h-128v-256h128v-128h-128v-128h-128z" glyph-name="p" unicode="p"/><glyph d="M0 128v256h128v-256h-128zM256 -128v128h-128v128h128v256h-128v128h256v-640h-128z" glyph-name="q" unicode="q"/><glyph d="M0 0v512h384v-256h-128v128h-128v-384h-128z" glyph-name="r" unicode="r"/><glyph d="M0 0v128h256v-128h-256zM256 128v128h128v-128h-128zM0 256v128h128v-128h-128zM128 384v128h256v-128h-256z" glyph-name="s" unicode="s"/><glyph d="M128 0v384h-128v128h128v128h128v-128h128v-128h-128v-256h128v-128h-256z" glyph-name="t" unicode="t"/><glyph d="M0 0v512h128v-384h128v384h128v-512h-384z" glyph-name="u" unicode="u"/><glyph d="M128 0v128h128v-128h-128zM0 128v384h128v-384h-128zM256 128v384h128v-384h-128z" glyph-name="v" unicode="v"/><glyph d="M0 0v512h128v-384h128v384h128v-384h128v384h128v-512h-640z" glyph-name="w" horiz-adv-x="768" unicode="w"/><glyph d="M0 0v256h128v-256h-128zM256 0v256h128v-256h-128zM128 256v128h128v-128h-128zM0 384v128h128v-128h-128zM256 384v128h128v-128h-128z" glyph-name="x" unicode="x"/><glyph d="M0 -128v128h256v-128h-256zM256 0v128h-256v384h128v-256h128v256h128v-512h-128z" glyph-name="y" unicode="y"/><glyph d="M0 0v256h128v-128h256v-128h-384zM256 256v128h-256v128h384v-256h-128z" glyph-name="z" unicode="z"/><glyph d="M128 0v256h-128v128h128v256h256v-128h-128v-384h128v-128h-256z" glyph-name="braceleft" unicode="{"/><glyph d="M0 0v640h128v-640h-128z" glyph-name="bar" horiz-adv-x="256" unicode="|"/><glyph d="M0 0v128h128v384h-128v128h256v-256h128v-128h-128v-256h-256z" glyph-name="braceright" unicode="}"/><glyph d="M0 256v128h128v-128h-128zM256 256v128h128v-128h-128zM128 384v128h128v-128h-128zM384 384v128h128v-128h-128z" glyph-name="asciitilde" horiz-adv-x="640" unicode="~"/><glyph glyph-name="uni00A0"/><glyph d="M128 -128v384h128v-384h-128zM128 384v128h128v-128h-128z" glyph-name="exclamdown" horiz-adv-x="384" unicode="¡"/><glyph d="M128 0v128h-128v384h128v128h128v-128h128v-128h-256v-128h256v-128h-128v-128h-128z" glyph-name="cent" unicode="¢"/><glyph d="M0 0v128h128v128h-128v128h128v256h256v-128h-128v-128h128v-128h-128v-128h128v-128h-384z" glyph-name="sterling" unicode="£"/><glyph d="M128 0v128h-128v128h128v128h-128v256h128v-128h128v128h128v-256h-128v-128h128v-128h-128v-128h-128z" glyph-name="yen" unicode="¥"/><glyph d="M0 0v256h128v-256h-128zM0 384v256h128v-256h-128z" glyph-name="brokenbar" horiz-adv-x="256" unicode="¦"/><glyph d="M0 0v128h256v128h128v-256h-384zM128 256v128h128v-128h-128zM0 384v256h384v-128h-256v-128h-128z" glyph-name="section" unicode="§"/><glyph d="M0 512v128h128v-128h-128zM256 512v128h128v-128h-128z" glyph-name="dieresis" unicode="¨"/><glyph d="M0 128v384h384v-128h-256v-128h256v-128h-384z" glyph-name="copyright" unicode="©"/><glyph d="M0 384v128h128v-128h-128zM128 256v128h128v128h-128v128h256v-384h-256z" glyph-name="ordfeminine" unicode="ª"/><glyph d="M128 128v128h128v-128h-128zM512 128v128h128v-128h-128zM0 256v128h128v-128h-128zM384 256v128h128v-128h-128zM128 384v128h128v-128h-128zM512 384v128h128v-128h-128z" glyph-name="guillemotleft" horiz-adv-x="768" unicode="«"/><glyph d="M256 128v128h-256v128h384v-256h-128z" glyph-name="logicalnot" unicode="¬"/><glyph d="M0 256v128h256v-128h-256z" glyph-name="uni00AD" horiz-adv-x="384" unicode="­"/><glyph d="M256 128v128h128v-128h-128zM0 128v384h384v-128h-128v-128h-128v-128h-128z" glyph-name="registered" unicode="®"/><glyph d="M0 512v128h384v-128h-384z" glyph-name="macron" unicode="¯"/><glyph d="M0 512v128h128v-128h-128z" glyph-name="degree" horiz-adv-x="256" unicode="°"/><glyph d="M0 0v128h384v-128h-384zM128 256v128h-128v128h128v128h128v-128h128v-128h-128v-128h-128z" glyph-name="plusminus" unicode="±"/><glyph d="M128 256v256h-128v128h256v-256h128v-128h-256z" glyph-name="uni00B2" unicode="²"/><glyph d="M0 256v128h128v128h-128v128h256v-384h-256z" glyph-name="uni00B3" horiz-adv-x="384" unicode="³"/><glyph d="M0 384v128h128v-128h-128zM128 512v128h128v-128h-128z" glyph-name="acute" horiz-adv-x="384" unicode="´"/><glyph d="M0 -128v640h128v-384h128v384h128v-512h-256v-128h-128z" glyph-name="uni00B5" unicode="µ"/><glyph d="M128 0v256h-128v384h384v-640h-256z" glyph-name="paragraph" unicode="¶"/><glyph d="M0 256v128h128v-128h-128z" glyph-name="periodcentered" horiz-adv-x="256" unicode="·"/><glyph d="M0 -128v128h128v-128h-128z" glyph-name="cedilla" horiz-adv-x="256" unicode="¸"/><glyph d="M128 256v256h-128v128h256v-384h-128z" glyph-name="uni00B9" horiz-adv-x="384" unicode="¹"/><glyph d="M256 384v128h-128v-128h128zM0 256v384h384v-384h-384z" glyph-name="ordmasculine" unicode="º"/><glyph d="M0 128v128h128v-128h-128zM384 128v128h128v-128h-128zM128 256v128h128v-128h-128zM512 256v128h128v-128h-128zM0 384v128h128v-128h-128zM384 384v128h128v-128h-128z" glyph-name="guillemotright" horiz-adv-x="768" unicode="»"/><glyph d="M512 0v128h-256v256h128v-128h128v128h128v-384h-128zM0 256v384h128v-384h-128z" glyph-name="onequarter" horiz-adv-x="768" unicode="¼"/><glyph d="M384 0v256h-128v128h256v-256h128v-128h-256zM0 256v384h128v-384h-128z" glyph-name="onehalf" horiz-adv-x="768" unicode="½"/><glyph d="M512 0v128h-128v256h256v-384h-128zM0 256v128h128v128h-128v128h256v-384h-256z" glyph-name="threequarters" horiz-adv-x="768" unicode="¾"/><glyph d="M0 -128v384h256v-128h-128v-128h256v-128h-384zM128 384v128h128v-128h-128z" glyph-name="questiondown" unicode="¿"/><glyph d="M256 256v128h-128v-128h128zM0 0v512h384v-512h-128v128h-128v-128h-128zM0 640v128h256v-128h-256z" glyph-name="Agrave" unicode="À"/><glyph d="M256 256v128h-128v-128h128zM0 0v512h384v-512h-128v128h-128v-128h-128zM128 640v128h256v-128h-256z" glyph-name="Aacute" unicode="Á"/><glyph d="M256 256v128h-128v-128h128zM0 0v512h384v-512h-128v128h-128v-128h-128zM0 640v128h384v-128h-384z" glyph-name="Acircumflex" unicode="Â"/><glyph d="M256 256v128h-128v-128h128zM0 0v512h384v-512h-128v128h-128v-128h-128zM0 640v128h384v-128h-384z" glyph-name="Atilde" unicode="Ã"/><glyph d="M256 256v128h-128v-128h128zM0 0v512h384v-512h-128v128h-128v-128h-128zM0 640v128h128v-128h-128zM256 640v128h128v-128h-128z" glyph-name="Adieresis" unicode="Ä"/><glyph d="M256 256v128h-128v-128h128zM0 0v512h384v-512h-128v128h-128v-128h-128zM128 640v128h128v-128h-128z" glyph-name="Aring" unicode="Å"/><glyph d="M256 384v128h-128v-128h128zM0 0v640h640v-128h-256v-128h256v-128h-256v-128h256v-128h-384v256h-128v-256h-128z" glyph-name="AE" horiz-adv-x="768" unicode="Æ"/><glyph d="M128 -128v128h-128v640h384v-128h-256v-384h256v-128h-128v-128h-128z" glyph-name="Ccedilla" unicode="Ç"/><glyph d="M0 0v512h384v-128h-128v-128h-128v-128h256v-128h-384zM0 640v128h256v-128h-256z" glyph-name="Egrave" unicode="È"/><glyph d="M0 0v512h384v-128h-128v-128h-128v-128h256v-128h-384zM128 640v128h256v-128h-256z" glyph-name="Eacute" unicode="É"/><glyph d="M0 0v512h384v-128h-128v-128h-128v-128h256v-128h-384zM0 640v128h384v-128h-384z" glyph-name="Ecircumflex" unicode="Ê"/><glyph d="M0 0v512h384v-128h-128v-128h-128v-128h256v-128h-384zM0 640v128h128v-128h-128zM256 640v128h128v-128h-128z" glyph-name="Edieresis" unicode="Ë"/><glyph d="M0 0v128h128v256h-128v128h384v-128h-128v-256h128v-128h-384zM0 640v128h256v-128h-256z" glyph-name="Igrave" unicode="Ì"/><glyph d="M0 0v128h128v256h-128v128h384v-128h-128v-256h128v-128h-384zM128 640v128h256v-128h-256z" glyph-name="Iacute" unicode="Í"/><glyph d="M0 0v128h128v256h-128v128h384v-128h-128v-256h128v-128h-384zM0 640v128h384v-128h-384z" glyph-name="Icircumflex" unicode="Î"/><glyph d="M0 0v128h128v256h-128v128h384v-128h-128v-256h128v-128h-384zM0 640v128h128v-128h-128zM256 640v128h128v-128h-128z" glyph-name="Idieresis" unicode="Ï"/><glyph d="M0 0v256h128v-128h128v-128h-256zM256 128v384h128v-384h-128zM0 384v256h256v-128h-128v-128h-128z" glyph-name="Eth" unicode="Ð"/><glyph d="M0 0v512h384v-512h-128v384h-128v-384h-128zM0 640v128h384v-128h-384z" glyph-name="Ntilde" unicode="Ñ"/><glyph d="M256 128v256h-128v-256h128zM0 0v512h384v-512h-384zM0 640v128h256v-128h-256z" glyph-name="Ograve" unicode="Ò"/><glyph d="M256 128v256h-128v-256h128zM0 0v512h384v-512h-384zM128 640v128h256v-128h-256z" glyph-name="Oacute" unicode="Ó"/><glyph d="M256 128v256h-128v-256h128zM0 0v512h384v-512h-384zM0 640v128h384v-128h-384z" glyph-name="Ocircumflex" unicode="Ô"/><glyph d="M256 128v256h-128v-256h128zM0 0v512h384v-512h-384zM0 640v128h384v-128h-384z" glyph-name="Otilde" unicode="Õ"/><glyph d="M256 128v256h-128v-256h128zM0 0v512h384v-512h-384zM0 640v128h128v-128h-128zM256 640v128h128v-128h-128z" glyph-name="Odieresis" unicode="Ö"/><glyph d="M0 128v128h128v-128h-128zM256 128v128h128v-128h-128zM128 256v128h128v-128h-128zM0 384v128h128v-128h-128zM256 384v128h128v-128h-128z" glyph-name="multiply" unicode="×"/><glyph d="M384 128v256h-128v128h-128v-128h128v-128h-128v-128h256zM0 0v640h512v-640h-512z" glyph-name="Oslash" horiz-adv-x="640" unicode="Ø"/><glyph d="M0 0v512h128v-384h128v384h128v-512h-384zM0 640v128h256v-128h-256z" glyph-name="Ugrave" unicode="Ù"/><glyph d="M0 0v512h128v-384h128v384h128v-512h-384zM128 640v128h256v-128h-256z" glyph-name="Uacute" unicode="Ú"/><glyph d="M0 0v512h128v-384h128v384h128v-512h-384zM0 640v128h384v-128h-384z" glyph-name="Ucircumflex" unicode="Û"/><glyph d="M0 0v512h128v-384h128v384h128v-512h-384zM0 640v128h128v-128h-128zM256 640v128h128v-128h-128z" glyph-name="Udieresis" unicode="Ü"/><glyph d="M128 0v256h-128v256h128v-128h128v128h128v-256h-128v-256h-128zM128 640v128h256v-128h-256z" glyph-name="Yacute" unicode="Ý"/><glyph d="M256 256v128h-128v-128h128zM0 0v640h128v-128h256v-384h-256v-128h-128z" glyph-name="Thorn" unicode="Þ"/><glyph d="M256 128v128h128v-128h-128zM256 384v128h128v-128h-128zM0 -128v768h256v-128h-128v-128h128v-128h-128v-128h128v-128h-128v-128h-128z" glyph-name="germandbls" unicode="ß"/><glyph d="M0 128v128h128v-128h-128zM128 0v128h128v128h-128v128h256v-384h-256zM0 512v128h256v-128h-256z" glyph-name="agrave" unicode="à"/><glyph d="M0 128v128h128v-128h-128zM128 0v128h128v128h-128v128h256v-384h-256zM128 512v128h256v-128h-256z" glyph-name="aacute" unicode="á"/><glyph d="M0 128v128h128v-128h-128zM128 0v128h128v128h-128v128h256v-384h-256zM0 512v128h384v-128h-384z" glyph-name="acircumflex" unicode="â"/><glyph d="M0 128v128h128v-128h-128zM128 0v128h128v128h-128v128h256v-384h-256zM0 512v128h384v-128h-384z" glyph-name="atilde" unicode="ã"/><glyph d="M0 128v128h128v-128h-128zM128 0v128h128v128h-128v128h256v-384h-256zM0 512v128h128v-128h-128zM256 512v128h128v-128h-128z" glyph-name="adieresis" unicode="ä"/><glyph d="M0 128v128h128v-128h-128zM128 0v128h128v128h-128v128h256v-384h-256zM128 512v128h128v-128h-128z" glyph-name="aring" unicode="å"/><glyph d="M0 128v256h128v-256h-128zM512 256v128h128v-128h-128zM128 0v128h128v256h-128v128h384v-128h-128v-128h128v-128h128v-128h-512z" glyph-name="ae" horiz-adv-x="768" unicode="æ"/><glyph d="M128 -128v128h-128v512h384v-128h-256v-256h256v-128h-128v-128h-128z" glyph-name="ccedilla" unicode="ç"/><glyph d="M128 0v128h256v-128h-256zM0 128v128h128v-128h-128zM128 256v128h256v-128h-256zM0 512v128h256v-128h-256z" glyph-name="egrave" unicode="è"/><glyph d="M128 0v128h256v-128h-256zM0 128v128h128v-128h-128zM128 256v128h256v-128h-256zM128 512v128h256v-128h-256z" glyph-name="eacute" unicode="é"/><glyph d="M128 0v128h256v-128h-256zM0 128v128h128v-128h-128zM128 256v128h256v-128h-256zM0 512v128h384v-128h-384z" glyph-name="ecircumflex" unicode="ê"/><glyph d="M128 0v128h256v-128h-256zM0 128v128h128v-128h-128zM128 256v128h256v-128h-256zM0 512v128h128v-128h-128zM256 512v128h128v-128h-128z" glyph-name="edieresis" unicode="ë"/><glyph d="M128 0v384h128v-384h-128zM0 512v128h256v-128h-256z" glyph-name="igrave" horiz-adv-x="384" unicode="ì"/><glyph d="M128 0v384h128v-384h-128zM128 512v128h256v-128h-256z" glyph-name="iacute" unicode="í"/><glyph d="M128 0v256h128v-256h-128zM0 384v128h128v-128h-128zM256 384v128h128v-128h-128zM128 512v128h128v-128h-128z" glyph-name="icircumflex" unicode="î"/><glyph d="M128 0v384h128v-384h-128zM0 512v128h128v-128h-128zM256 512v128h128v-128h-128z" glyph-name="idieresis" unicode="ï"/><glyph d="M0 128v128h128v-128h-128zM128 0v128h128v128h-128v128h128v128h128v-512h-256zM0 512v128h256v-128h-256z" glyph-name="eth" unicode="ð"/><glyph d="M0 0v384h384v-384h-128v256h-128v-256h-128zM0 512v128h384v-128h-384z" glyph-name="ntilde" unicode="ñ"/><glyph d="M256 128v128h-128v-128h128zM0 0v384h384v-384h-384zM0 512v128h256v-128h-256z" glyph-name="ograve" unicode="ò"/><glyph d="M256 128v128h-128v-128h128zM0 0v384h384v-384h-384zM128 512v128h256v-128h-256z" glyph-name="oacute" unicode="ó"/><glyph d="M256 128v128h-128v-128h128zM0 0v384h384v-384h-384zM0 512v128h384v-128h-384z" glyph-name="ocircumflex" unicode="ô"/><glyph d="M256 128v128h-128v-128h128zM0 0v384h384v-384h-384zM0 512v128h384v-128h-384z" glyph-name="otilde" unicode="õ"/><glyph d="M256 128v128h-128v-128h128zM0 0v384h384v-384h-384zM0 512v128h128v-128h-128zM256 512v128h128v-128h-128z" glyph-name="odieresis" unicode="ö"/><glyph d="M128 0v128h128v-128h-128zM0 256v128h384v-128h-384zM128 512v128h128v-128h-128z" glyph-name="divide" unicode="÷"/><glyph d="M128 0v128h-128v256h128v-128h128v-128h128v-128h-256zM384 128v128h-128v128h-128v128h256v-128h128v-256h-128z" glyph-name="oslash" horiz-adv-x="640" unicode="ø"/><glyph d="M0 0v384h128v-256h128v256h128v-384h-384zM0 512v128h256v-128h-256z" glyph-name="ugrave" unicode="ù"/><glyph d="M0 0v384h128v-256h128v256h128v-384h-384zM128 512v128h256v-128h-256z" glyph-name="uacute" unicode="ú"/><glyph d="M0 0v384h128v-256h128v256h128v-384h-384zM0 512v128h384v-128h-384z" glyph-name="ucircumflex" unicode="û"/><glyph d="M0 0v384h128v-256h128v256h128v-384h-384zM0 512v128h128v-128h-128zM256 512v128h128v-128h-128z" glyph-name="udieresis" unicode="ü"/><glyph d="M0 -128v128h256v-128h-256zM256 0v128h-256v256h128v-128h128v128h128v-384h-128zM128 512v128h256v-128h-256z" glyph-name="yacute" unicode="ý"/><glyph d="M256 128v128h-128v-128h128zM0 -128v640h128v-128h256v-384h-256v-128h-128z" glyph-name="thorn" unicode="þ"/><glyph d="M0 -128v128h256v-128h-256zM256 0v128h-256v256h128v-128h128v128h128v-384h-128zM0 512v128h128v-128h-128zM256 512v128h128v-128h-128z" glyph-name="ydieresis" unicode="ÿ"/><glyph d="M256 128v384h-128v-384h128zM0 0v640h640v-128h-256v-128h256v-128h-256v-128h256v-128h-640z" glyph-name="OE" horiz-adv-x="768" unicode="Œ"/><glyph d="M128 0v128h128v-128h-128zM0 128v256h128v-256h-128zM384 0v128h-128v256h128v-128h128v-128h128v-128h-256zM512 256v128h128v-128h-128zM128 384v128h128v-128h-128zM384 384v128h128v-128h-128z" glyph-name="oe" horiz-adv-x="768" unicode="œ"/><glyph d="M128 0v256h-128v256h128v-128h128v128h128v-256h-128v-256h-128zM0 640v128h128v-128h-128zM256 640v128h128v-128h-128z" glyph-name="Ydieresis" unicode="Ÿ"/><glyph d="M256 128v128h128v-128h-128zM256 384v128h128v-128h-128zM0 -128v768h256v-128h-128v-128h128v-128h-128v-128h128v-128h-128v-128h-128z" glyph-name="beta" unicode="β"/><glyph d="M0 0v640h128v-512h128v512h128v-640h-384z" glyph-name="afii10026" unicode="И"/><glyph d="M0 0v512h128v-384h128v384h128v-512h-384zM0 640v128h384v-128h-384z" glyph-name="afii10027" unicode="Й"/><glyph d="M256 128v256h-128v-256h128zM0 0v512h384v-512h-384z" glyph-name="afii10080" unicode="о"/><glyph d="M256 128v128h-128v-128h128zM0 0v384h384v-384h-384zM128 512v128h256v-128h-256z" glyph-name="uni046B" unicode="ѫ"/><glyph d="M0 256v128h640v-128h-640z" glyph-name="emdash" horiz-adv-x="768" unicode="—"/><glyph d="M0 384v256h128v-128h128v-128h-256z" glyph-name="quoteleft" horiz-adv-x="384" unicode="‘"/><glyph d="M128 384v128h-128v128h256v-256h-128z" glyph-name="quoteright" horiz-adv-x="384" unicode="’"/><glyph d="M0 384v256h128v-256h-128zM256 384v256h128v-256h-128z" glyph-name="quotedblleft" unicode="“"/><glyph d="M0 384v256h128v-256h-128zM256 384v256h128v-256h-128z" glyph-name="quotedblright" unicode="”"/><glyph d="M128 0v384h-128v128h128v128h128v-128h128v-128h-128v-384h-128z" glyph-name="dagger" unicode="†"/><glyph d="M0 128v256h256v-256h-256z" glyph-name="bullet" horiz-adv-x="384" unicode="•"/><glyph d="M0 0v128h128v-128h-128zM256 0v128h128v-128h-128zM512 0v128h128v-128h-128z" glyph-name="ellipsis" horiz-adv-x="768" unicode="…"/><glyph d="M128 0v256h-128v128h128v256h256v-128h-128v-128h128v-128h-128v-128h128v-128h-256z" glyph-name="Euro" unicode="€"/><glyph d="M128 128v256h-128v128h640v-384h-256v256h-128v-256h-128z" glyph-name="trademark" horiz-adv-x="768" unicode="™"/></font>
</defs>
</svg>
